<svg xmlns="http://www.w3.org/2000/svg" width="106.121" height="90.427" viewBox="0 0 106.121 90.427">
  <path id="IN-AP" d="M252.953,462.52v0h0Zm.413-.025-.246,1.578-.477-.684-.01-.509Zm-.413.025-.077-.4-.172.281-.8.062-.037-.463-.571.368,1.1.486h0l-.015.658.288.089.42.951-4.845,2.389-2.973,1.177-2.38-.677-1.967.234-1.691.846-1.647,3.633.063.614-1.843,1.964-.173.295.243.552-.6.529-1.92.26-.549-.932.165-.493.236,0-.074-.368-1.573-.553-1.982.384-1.412.679-1.212.8-.924,1.039-.917,2.849-1.345,2.146-.681,3.2.885,4.756,1.116,1.972-.918,6.389,1.525,4.132-.11,2.457,1.046,2.815-1.912-3.5-.357-.163-.074,1.21-.391-.395.225-.391-.254-.049-.741,1.173,1.467,1.346.994.023,1,.894h0v.724l-.479-.269-.606-1.2-1.038-.027-1.1-.8-1,.109-.053.267.565.113.044.237-.4-.045-.139.386-.445.112.018.456-.408.185.279.412-.372.52-.986.444-.675-.012-.272.3-.341-.283-.435.417.844.665-.537.389-.286-.367-.452.2.1-.361-.3.061-.063-.716-1.171.5-.418-.3-.172-.6-1.418-.171-.72.28.669.3-.188.944.335-.241.125.178-.317.112.029.287-1.008.333.09.454-.618.448-.538-.6-.651.077v.432l-.39.263-.48,1.054-1.109-.093-1.187-.85-.865.119-.278.445.414.225-.567-.015-.078-.906-1.725.556-.578-.146-.115.705-.566-.184-.5.532.438.815-.278,0-.58,2.021-.483.366.028.794-.309.08-.112-.325h0l-.072.024-.227-.023-.065.546-.41.014.026.61-1.211.076-1.033-.559-.345-.53-.989.144.5-.461-.087-.509h0l.271-1.291.822,0,.561-1.1.437.448.762-.075-.174-.926.468.073-.084-.93.7-.289-.035-.394.345-.214-.255-.3.8-.5-.373-.419.368-.232.117-.788-.29-.51-.462.6-.651-.714-.475.13-.153-.283-.44.21-.322-.223.4-.168-.56-.31.473-3.045-2.163-.124-.589.421.142-.816-.444-.1-.063-.345-.995.183-.3-.433.076-.29.548.052.053-.353-.324-.318.442-.594-.062-.874-.961-.627-.044.463-.7-.12-.257.567-.281,0-.028-.825.472-.179-.154-.783-.727.73-.326-.465-.911-.05-.158.359.283.657-.686.338.032.315-.871.306-.054.789-.175-.392-.422.125.086-.345-.28.023-.513.279.349.276-.205.107-.34-.222-.525.371-.483-.375-.1.8-.331-.289-.058.37-.44.054.1-1.658-.647-.03.21-.491-.863-.144-.523.273-.174-.431-.749.243-.221-.758-.3.458-.087-.27-.347.292-.023-.788-.279.241.087.586-.513.1.509.392.058.9-.946-.085-.467.3-.447-.446-.2.529-.25-.134-.321-.982.648-1.08.318-.055-.072-.386-1.39-1.329.582-.582-.637-.848-.575-.052.1-.383.6-.094.062-.32,1.037.227-.153,1.022.2.614,1.292.152.348.692,2.2-.455.534.581-.072,1.174.558-.015.019.244.471-.4-.262-.368.3-.447-.729-.005.1-.523-.758-.213.919-1.1-.076-.207-.6.308.042-.387.384-.072.172-.489,1.468.2-.055-1.655-.551-.006-.164-.515-.752-.207-.141.407.54,1.141-.423.276-.376-.523.051-.538-1.056-.093.021-.755-.653.275-1.058-.366-.534.689-.091,1.018-.395.054-.341-.414-1.483-.008-.172-.439.335-.3-.942-.718.053-.6.4-.319.378.192.029-.625.393-.455-1.369.135-.566-.749-.369-.064-.525-1.019.5-1.821-.235-.613.907-.34.208-2.2-.485.179-.85-.259.276-.643-.137-.753.3-.267,1.058.854,1.394.252.25-.264.613.005-.078.327.5.075,1-1.658-.291-.305.34-.086.006-.617-.494-.377.574-.521-.215-.366-.431-.057-.076-.516-.638.075-.453-1.561-.756-.768.02-.213.726.087.035-1.845.692-.262.461.383.117-.468-1.084-1.041.274-1.224-.552-.119.58-.933,1.028-.571,1.4-.237,3.456.51h0l1.286.126.7.486.758-.139,1.1.294,1.174-.423,1.514.507.456-.592.363.794.609.24.215-.3h.515l.2-.711.769-.4.248-1.412.79.03,1.187-.716,2.035.34.768-.588,1.282,1,.814.042.815-.882.018-.959.333.05.129.594.5.068-.067-1.06.266-.282,1.4-.6,1.932.4.558-.311.087-3.718.541-.738,2.128-.291.937-.665,2-.437,1.682-.936.469.542.684-.107.534.838.744-.059,1.191-1.429.289-.949-.485-.539-.549-.149.238-.611.482-.806,1.167-.278.64-.828.253.442.808.035.52.76.237,1.179.523.223.19.608.355-.536.7.478.051.351,1.412.377.547-.345-.657-.514.138-.614.289-.068-.034-.73-1.232-.3-.046.427-1.718-.739.4-.6-.288-.59.373-.292.338.732.341.109.477-.462.184-.8.85-.419,1.28.7-.226.453,1.142-.132,1.416.541.35-.35.152-1.327.57.005-.106-.769,1.139.3.733-.474,1.542-.26.249-1.247,1.135.031.763-.982.625.465.581-.062,1.032-1.214.106-1.261.3-.423-.276-.28.9-1.366.072-.533,2.729-1.477.138-.287-.457-.57h0l.567-.6,2-.782.967-.919,1.8.2.226.462.853.431.339-.093,0-.864.411-.192.1.338.322-.037.048-1.425.321.242.1-.2-.783-.783.354-.281.054-.705.464-.11.281-.453-.777-.149.663-.727-.307-.571,1.5-1.778.333.492.318-.031.093.975.313-.047-.246.673.867.292.143.311-.462.555.057.514.612.578.423-.809,1.436-.623.348-.893-.226-.347.3-.276.607.414.527-.041.1.642.541.217,1.121-.463.481.128.065-.753-.276.142-.293-.357.981-1.31-.754-.14-.074-.28.359-.26-.61-.027.047-.709.523-.212,1.087-1.659.912.424.044.37.19-.7.62.123.178-.458,1.018-.147.035-.448.5.018.2-.4-.858-.948.445.05-.457-.474-.222.564-.314-1.022.544-.283.829.193.619.71-.092-.758.346-.01.044-.294-.246-.681.184-.114.271.347.156-.164.11.562-.267-.028.025.221.477.08.2-.962.429.338.34-.539-.134-.452.385-.468.978,1.928.347.065-.231.375.531.942.454.146-.537-.993.63-.421,1.1,2.667.923.306,1.158-.079.726.807.546-.05.376-.386,2.4-.228.05-1.049.35.22.121-.227-.267-.225.48.077-.3-.26.431.142.419-.387-.183-.342.332-.405-.338-.659.75.459.236-.558,1.017-.62.286.732.332-.588.554.036,0-.4-.456.064-.371-.666.92.028.051-.49.492.079-.11.444.334.333h0l.556.345-2.362,2.74-.383,1.174-1.168,1.114-1.455,2.193-3.057,2.874-.015.591-5.376,2.734-1.945,1.335-.571.962-1.584,1.474v.465l-.87,1.189-1.739,1.871-8.036,4.1-3.173,2.468-.939,1.193-.343,1.277-.3.146.1.609.737.644.564-.158-.151,1.576-.572.326Z" transform="translate(-179.476 -428.42)"/>
</svg>
