<svg xmlns="http://www.w3.org/2000/svg" width="83.879" height="56.774" viewBox="0 0 83.879 56.774">
  <path id="IN-AS" d="M452.571,262.55l.131.818-.33.186h0Zm29.681-20,2.235-.129,1.017-.493.619.139.794-.552,1.666.022.8-.382-.084-.463.263-.3,2.832.46.587.343.015.3,1.347.707,4.359-.692,1.876.368,2.472-.485,1.282-1.361.83-.19-.126-.662-.36-.266,2.1-2.356,1.385-1.029,1.277-1.715,1.351-.668-.034-.522-.6-.8.545-.451.316.714.292-.164.922.413.842-.4.381.681,2.955-1.378.092-.264.883.01.523-.474.584-.082.284-.539,2.26-.53,3.784-1.448.9.438,1.746-.6,1.2-1.143,2.907-.295,2.01.133-.665,1.223-1.382,1.173-.566.767.1.243-.392.164.508.646-.239.236.3.35-.19.384.492.306.208.546.549.2.11.705-.534,1.136.239.2.282-.4.058.569.315-.556.438-.028.241.313.129-.17.539,1.012-1.485,1.138-.165.432-.444-.466-.719.037-2.868.931-.98-.585-.749.825-.026,1.162-1.448.462L523.9,240.52l-.7-.19h0l-1.134,1.134-1.176.619-.473.107-.763-.5-.556.293-1.115,1.883-1.533,1.094-.773.208-.321-.307-.391.718-.393-.3-1.023.612-.072.511-.724.314-.112,1.219-.641.352-.459.679-.3-.265-.054-1.238-.173.079-1.2,1.461-.146,1.726-.9.264-1.369,2.269-.182,1.489-.481.966.326,1.3-.843.473-.44.617-.536-.247-.617.713-.212-.472.246-.936-.336-.832-.281.439-.852.4.236.9-1.754,1.3-.973,1.538-.96.37-1.27,1.247.851,1.217.875.433.217.806-.349.525.293.513h0l-1.131.931-.7,2.2-.413.7-.483-.025-.257.453.18.989-.3.183.176.293-.321.608-.423.305,0,.662-.589.315-.4-.44-.171.147-.034.993-.416.462.383.512-.388,1.157.419.185-.609.128.153.2-.489.937.045,1.253-.513.116h0l-.859.113-.321-.253-.084.269-.561-.073-.45.317-.845-2.089-.989,2.424-.881.323-.169,1.157-.808.109-.253,1-.606.222-.066.3-.587-.161-.189-1.468-1.668.02h0l-1.111.036.791-1.9-.549-1.183v-.638h0l.264-2.236.628-1.162-.766-2.381.768-.306,1.234,1.027.542-.032.224-.368.566.047.172-.444-.2-.732-.274.174-.221-.161.287-.054-.174-.28-.426.052-.034-.869h0l.5-.078.279-1.041.778.124-.243-.593,1.286.327.6-.871,1.824-.621-.527-.44.365-.527-.1-.7-.316-.04-.312-.677-.251.093-.589-.62-.181.1-.077-.368-.6.276-.145-.811-.407.062,1.025-1.03.117-.807-.675.513-.4-.045-.2-.76-.742-.161-.481-.878-.442-.126.013-.6-.638-.326-.683.418-1.387.133-.905.654-.1-2.079.355-.848.605-.545-.82-.07-.1-.488,1.87-1.987-.745.245-.834-.251-.6.5-1.065.193-.819-.121-.914.614-.689-.779.075-.674-.75-.311-1.168.881-.146,1.555-.675.719-.772-.51.356-.368-.077-.851-.747-.158L474.209,257l.394-.043-.751.775.438.055.291-.328-.057.248-1.075.47-.338-.2-1.132.235-.769,1.357-.686.347-.423-.091-.16-.69.22-1.221-1.767.571-.177-.126.38-.35-.39.056-.641.392.378-.972-.819.013-.328-.892-.356.065.042.441-.479-.568-.613.2-.357-.206-.422.649-.5-.1.091-.622-.814.1-.812.767-.243-.2.3-.372-.618-.331-.927.939.29-.914-.758-.846-.646.387-.426-.372-.418.057-.539.532-1.881.442-.847-.248-1.511,1.221.228.194-.181.276-.845.33.141.739-.288.441-.542.141,1.654,1.959-1.952.854h0l.2-1.261L452.1,260l.118-.749-.385-.719,1.006-1.821-.516-.092-.132-.259.45-.18-.475-.508,0,.435-.223-.057-.251-.806-.347.036.338-.306-.079-.422-.51-.339.153-.273-.262-.417-.426-.154h0l.2-.133-.521-.209.493-.344-.461-.073.418-.311-.317-.469.271.17.163-.188-.26-.513.541.243-.108-.477.4-.14.015-.332,1-.463-.139-.271-.259.093.575-.941-.238-.414.124-1.339.206-.094-.272-.582.256-.388-.257-.808h0l.072-.494,1.265.206,2.5-.472.566-.234-.062-.583.409-.655,1.149.082.71-.714.725-.086,1.993,1.5,2.021.5,4.532-.177.566-.6,2.2.22.982.377.956-.832,1.12.682,1.737-.47.842.241,1.521-.7.741-.924.523-.031,1.172.862.8.16.576-.2.255-.491Z" transform="translate(-450.242 -226.325)"/>
</svg>
