<svg xmlns="http://www.w3.org/2000/svg" width="77.877" height="42.298" viewBox="0 0 77.877 42.298">
  <path id="IN-AR" d="M550.154,192l.371.589-.036.537.8,1.13.655-.01.931-.76.393.444-.617,1.3-1.142.165-.989,1-.944.259.476.372.457.989-.525.769.282.479,1.085-.561,1.305-1.359,1.182-.081,1.185-.634-.634,1.3.134.436.414-.086.247,1.32,1.042,1.6-.4.864-1.5.506.283.758-.876.773-.36-.109.075.458-.69.052-.384.4.628.711-1.449,1.114.744.412.678-.123.378.752.311-.1.47-1.032.689.014.92-.677,1.127-.041,1.147.666.309.721,1.033.086.615-.266.362.618.937.435,1.274-.808,1.079,1.067,1.435.344,1.571,1.143-.49.061-.435.5.109.655-.414.64.872.1.047.469.506.226-.492.571.145,1.351-.9.1-.165-.608-.692.307-2.043,1.746-.081.653-.9.012-.667,1.16-.477.066-.593.7.532,1.361-.343,1.01L563.6,225.9l-.336.508-.5-.275-.491.181-1.153-.86-1.446-.4-.163-.384.354-.264-.065-.465-.31-.068-.788-1.226-1.191-.393-.179.227-1.148-.057-1.2,1.128-.684-.276-3.136.413-2.625,1.328-1.329,2.136-.783.485h-.919l-1.023,1.983-.762-.338-.82,1.326-1.045-.149-1.378,1.953-1.675.655-.861-.451h0l-.284-.73.381-.774-.395-.164-.086-.779-.32-.211.655-.387-.509-2.269h0l.7.19,1.331-1.112,1.448-.462.026-1.162.749-.825.98.585,2.868-.93.719-.037.444.466.165-.431,1.485-1.138-.539-1.012-.129.17-.241-.313-.438.028-.316.556-.058-.569-.282.4-.239-.2.533-1.137-.11-.705-.55-.2-.208-.546-.492-.306.19-.384-.305-.35.239-.236-.508-.646.393-.164-.1-.243.566-.767,1.381-1.173.665-1.223-2.01-.133-2.906.295-1.2,1.143-1.746.6-.9-.438-3.783,1.448-2.261.53-.284.54-.584.082-.523.474-.883-.01-.091.264L527.63,219.6l-.381-.681-.842.4-.922-.413-.291.164-.316-.714-.545.451.6.8.034.522-1.351.667-1.277,1.715-1.385,1.03-2.1,2.356.361.266.127.662-.83.19-1.282,1.361-2.473.485-1.876-.368-4.359.692-1.347-.707-.015-.3-.587-.343-2.832-.46-.264.3.084.463-.8.382-1.666-.021-.794.552-.619-.139-1.017.493-2.235.128h0l-.06-1.7-.923-.852-.138-1.456.615-.916-.4-.643.823-.037.252-.276-.82-.593-.058-1.091-.474-1.192-1.052.287-1.013-.322-1.9.176-.4-.485-.566.27-1.07-1.354.124-.5-.244-.377.876-1.089.21-.889-.152-.536-.389-.3-.442.083-.286-.6,1.565-.041.632.676,1.521.044.482,1.1.772.328.864-.825.949.163,2.055-1.5.712.016.689,1.2.847-.252.359-.407.637.283.616-.575.788.308.588-.85.851-.34.932-1.344-1.015-1.105.319-.949,1.494-1.153.355.456.913-.492.919-.863.475.468.443-.488-.134-.605,2.591-.461.167-1.012-.648-.594,1.237-.981.389-.929-.072-.5.369-.133.122-.483,1.442-.543.379.34.224-.46.567.38,1.144.017,1.479-.478.578.315.913-.59,1.089.54,1-1.573-.214-.345.128-.653,2.125-1.722.79-1.966.968-.975.917-.068.2-.573.781-.558,1.68-.032.933-1.824,1.1.675.879.963.274,1.165.979-.3,2,.817-.335-.645,1.338.445.31.419,1.711.1.209.794,1.905.358.586-.043.38-.52.177-1.053.67.177-.121-1.3.638-.061.172-.668.521.183,1.851-1.625.25.306,1.119-.841,1.012.134,1.637-1.231Z" transform="translate(-488.955 -190.771)"/>
</svg>
