<svg xmlns="http://www.w3.org/2000/svg" width="22.991" height="110.249" viewBox="0 0 22.991 110.249">
  <path id="IN-AN" d="M524.66,625.454l-.026.3.487.194.066,1.568.8,1.17-.45-.015.419.591-.364.119-.277.6.065,1.193-.259.27-.42-.311-.318.825-.292-.137.142-.69-.384-.2-.077-.792-.515-.465.044-.493-.682-.712-.409.114-.077-1.243.231-.173-.253-.171.406-.866.63.037.357-.364.556.174.058-.431.545-.091Zm-1.791-2.721.567,1.122-1.425,1.57-.361-.881.151-.833,1.08-.3-.011-.68Zm-4.418-7.786.393.237.034.605.236-.078.464.507-.044.774-.519-.468-.877.246-.182-.4.2-.306-.542.108.125-.924.707-.3Zm2.219-.044.471.488-.07.85-.933-.756.335-.54.243.386Zm.416-1.3.184,1.173-.413-1.076Zm-.691-1.422.25.449-.56.665.6.8.026.7-.261-.171-.295.2-.1.491-.206-.633.27.05.072-.371.092.287.156-.425-.594.359.058-.531-.4-.411-.074-.689.962-.774Zm-3.863-.46.055.6-.256-.325Zm-1.446-1.211.228.126-.226.94,1.038.816-.07.291-1.009-.361-.479-.652.1-.935.418-.225Zm-1.093-1.577.181.459-.3-.127Zm7.588-1.346.351,1.41-.209.018-.051.612ZM510.6,598.572l.485.65.4-.174-.384.225.067.719-.545.293-.766-.1-.144-1.2.608-.022.1-.549Zm-3.607-22.3.192.438.022-.267.35.293.027.839.362.193.12,1.468-.753.886.39.458-.748.907L505.913,581l-.656.217.468-1.114-.534-.713-.056-1.542.284.285.788-1.364.565-.4.146.291Zm1.666-8.291.589,1-.483.4.585.269-.035.231-1.18.328-.275-.278.078-.458.476-.066-.124-.933Zm-.587-.427-.18.1.118-.582Zm-5.017-.687.687.112-.012.834-.734-.094Zm4.255-.149.394.2-.521.47.127-.666Zm6.381-3.255.681.105-.295.317-.454-.218Zm-.681-2.582.172-.134.357.335.591,1.57-.15.283-.561-.922-.344.024-.648-.643.523-.732Zm.261-.94.047.8-.41-.388-.029-.46.392.043Zm.511-.735.235,1.516-.511-.413,0-.427-.685-.475.39-.08.267.366.3-.486Zm.542-.738.35.935-.271.8-.5-.675Zm-4.878-.33.038.954.613-.1-.37,1.308.816.4-.286.358-.3-.276-.035.339.426.229-.66.509.07,1.507.3-1.108.5-.053.053.472-.435,2.7-.163-.142-.037.308-.515-.23.084.5-.558.22.1.389.186-.209.091.243.468-.495-.112-.367.465.283-.6,2.55-.172-.4-.682-.2.005-.682-.39.13-.128-.772.369.057.11-.281-.167-.2-.314.222-.265-1.131-.349.318-.205-1.908-.31.13-.125-.3.648-1.337.323.8.2-.13.034.529.091-.177.167-3.143,1.024-1.8Zm.475.236.234-.008-.077.465-.333-.057.176-.4Zm2.189-.511.156.444-.289-.146-.063.283-.1-.386Zm2.335-.083.119.336.256-.312-.069.765-.5-.343Zm-1.808-.256-.256.678-.274-.779.335.1.1-.408Zm-2.186-.4.81.235.381-.172.3.539-.4.274.287.689-.45-.035.056.543-.374-.1-.27.47.136.324-.634.593-.338-.427.408-1.93-.366-.118.107-.384.188.136.227-.289Zm14.1-.143.471.445.072.7-.717-.112-.157-.549.33-.483Zm-11.729-1.276-.305.751-.172-.07.149-.687.329.006Zm-3.242-5.638.09,1.5-.308-1.071Zm2.493-1.182.305.049-.224.372.3.016.347,1.045-.265.453.615.872-.3.915.137,1.984-.482.217-.013.2.356-.026-.566.326-.011.515-1.118-.3.856,1.464-.828.238-.807-.233-.222.327-.456-.063-.278-.384.106-3.65-.3-.152.261.009.652-.862-.335-.3.239-.4-.295-1.424.184.229.981-1.229.414.331h0l.4-.094h0l.345-.444Zm-2.7-1.037.321.185.022,1.226-.269.643-.343.072.181.26-.277.465-.266-1.071.284-1.37.347-.411Zm4.126-.068-.361.408.044.442-.409-.082.1-.659.165.269.457-.378Zm.3-7.865.207.656-.137,1.229.141.428.214-.235.125.2-.207.326.468.631-.329.448-.438-.576-.391-.11-.225.334-.214-.428-.261.223.781.326.04.592.446-.072,0,.311.277-.182-.457,1.277.036,1.335-.411.714-.505-.088.117.3-.53-.655L512.3,547l-.194.441.489.688-.347.337-.072-.524-.328.031-.369.753.246.6h0l-.4.094h0l-.647-.519v-.97l.32-.015.091-.354-.487-.077.11-.97.339-.094-.162-.416.5-.167-.5-.19.24-1.14.354-.28-.424-.273.262-.337-.273-.107.236-.887.365-.147-.317-.227h.328l.217-.375-.166-.569.767-.414-.158-.474.627-.11.321.227-.015-.619.3.425.256-.43Zm-.181-1.4.159.672-.677-.384Zm8.3-16.807-.391.92.013-.524Z" transform="translate(-502.993 -521.706)"/>
</svg>
