<svg xmlns="http://www.w3.org/2000/svg" width="65.976" height="47.733" viewBox="0 0 65.976 47.733">
  <path id="IN-BR" d="M380.257,251.826l.011.05h0Zm-52.866-14.537.44-.047-.026.463.755.244.036.405.605-.143.526,1.014,4.325.688L335,241.76l-.221,1.782-.419.719,1.513.666.21-.222.278.328.48-.354.819.742.939.139.213.3-.143.358,1.229.437-.5.466,2.3-.167-.246.815.44.792,1.646.257.972-.741.611.137,2.4-1.341,1.327,1.136-.028,2.1,1.13.77.444-.1-.016.611,1.3-.666.162-.562.9-.229,1.46.561-.031.334.744-.122.333.391.463-.426.991-.037,2.851,1.207.379.612,2.132,1.111.454-.541.9.293.8-.342-.031-.357.506-.052.038-.4,1.1-.227.392-.82.357.022.26,2.012.943.686,1.243-.1.128.553.618.037.378.35.37-.894,1.3-.479,1.849.882.609-.187.343-.622.742.41.434-.068.309-.843.782.486.523-.746.513,1.016.86.382.082.408h.427l.061-.4.8-.679.116-1.457h0l.521.366.3-.392.835-.217.029.292-.721.62.2.276.431-.063.037.432.516.377-.5.412.1.276.4-.086.323.4-1.03,1.071-.926.428-.99,1.142-.43-.029-.323.545-.65-.165.054,1.046-.4-.046-.09.229-.241-.326-.939.688-.162,1.612-.347.345.253.6,1.168.291-.365.342.36.2-.16.665.45-.023.38.689,1.162.5-.172.793.248.059-.441.677.2.74.492.483-.032.345-.568-.083-.266-.357-.043.241-.233-.126-.008-.327-.8-.168-.359.47-.262-.172-.209.745-.393.012-.333.447-.362-.154-.3.583.088.4.307.084-.065.585.962.8-.447.638.184.515-.651-.312h0l-.057-.377-1-.15-.314-.79-1.024-.018-.356-.544-.433.257-.1.725-.772-.2.188.481-.305.317-.007.679-1.066-.483-.291.33-.616-.265-.43,1.965-.538-.243-.52.239-.857.958.15,2.033-.094.4-.485.042-.477.488.24.3-.613,2.848-1.6-.527-.425.823.173.7-.461-.418-.289.246-.233-.26-.487.054.073-.437-.381-.37-.349.026-.255.617-.838.222-.868-.65-.746,1.024-.544.253-.227,1.354-.3.045-.181.777-.486-.154-.86-.942-.95-.267.442-.679-.112-.727.25-.377-.779.12-.62-.525-.3.389-.818-.269-.118-1.486-.5-.6-.63.073.153-.56-1.33.695-.962-1-1.333.02-.537-.347-.532,1.6-.625.386.2,1.537-1.169-.308-.11.553h-.418l-.246.595-.422-.383-2.706.351-.008.43-1.741.5.248.488-1.061.733-.318-.11.142-.776-.3.361-.834.042-.29.529-.935.056-.237-1.324-.607.15-.023-.861-.495-.262L334.8,282.5l-.274.914-1.138-.272-.089.414-.586.112.053.537-.424.764-.518-.753-.492.106.067-.405-.535-.446-.615-.089-.276-.4.2-.113-.494-.287.013-.437.427-.321-.443-.924-.315.026.144.18-.3.309-.294-.328-.232.263-.387-.295-.2.12.085.536-.44-.437-.08.518-.4.342-.836-1.912-.724-.377-.845,1.317-.8.22-2.007.408-2.9-.322h0l.573-1.449-.582-.373.215-.432-.437-.359-.012-.469-.355.066-.88-.745.048-.716-.483-.55-.134-2.05-.341-.1.52-1.569-.292-.839.189-.258.513-.119.279-.621.677-.04,1.05-.965.328.14.772-.314.369-.566.515-.049-.182-.1.257-.26.125.146.378-.359.39.334.5-.34-.066-.3.584-.078-.373-.427.542-.115.874-1.249,2.115-1.165-.091-.856.329-.366.713-.156.611.407.114.5,1.1.12-.027-.23.464.077.169-1.071.646-.061.29.726.622-.221.525.54.48-.1.15-.622-.06.5.278.13.044-.772.994.119-.4-.477.261-.493-.845-.641-.392.047.022-.641-1.4-.217-.2-.575-.755-.414-.73.183-1.254-.792-.472.134.013-.5-1.011-1.051-.557-.047-.41-.673-.088-1.415.9.289.446-.6.615.237.3-1.055-.138-.845-1.317-.156-.81-.95-.385.206-1.056-.232v-1.007l.8.141.154-.347.976-.172.461-.834-.01-.643,2.526.647,1.886-.413-.162-.655-1.016-.194-.366-1.027-.672.357-.177-.153-.124-.262.367-.769-.148-.8-.423-.128-.535.543-.494-.315.122-.476-.534-.2-.141.353-.5-.217-.058-.6-.3-.162.288-.287-.077-1.235-.664-.357.4-.4-1.078.037.522-1.6-.323-.518-.75-.365.367-.669-.119-.317-.823.211-.341-.173.392-.422h0l.662-.5-.44-.114-.066-.548.835-.313,1.276.236.9-.836.03-.41.268.052Z" transform="translate(-316.755 -237.237)"/>
</svg>
