<svg xmlns="http://www.w3.org/2000/svg" width="8.775" height="12.422" viewBox="0 0 8.775 12.422">
  <path id="IN-GA" d="M115,503.264l2.028-.185.431-.824.225.664.834.109.317,1.341.39.458.387.091,1.3-.63h0l.629-.024.222-.4.306.44.243-.241.314.17.176.615-.189.6.437.549-.41.5.347.64,0,.751.606.294.176,1.024-1.116.486.652.474.2.539-.428.562-.149.651.318.771-.539.675.112.331-.773.622-.527-.407.043.578-.478-.158-.557.341h0l-.722-.313.14-.546-1.149-1.482-.729-.248.487-.852-.711-2.558-.284-.528-.432.134-.774-.688,1.249.188.265-.25-.634-.513-.814-.13.236-.46-.541,0-.38-1.65-.741-1.521Z" transform="translate(-115.005 -502.255)"/>
</svg>
