<svg xmlns="http://www.w3.org/2000/svg" width="83.465" height="65.909" viewBox="0 0 83.465 65.909">
  <path id="IN-GJ" d="M19.118,335.49l.39.451-.272.311-.641-.439.523-.323Zm-6.511-.26.132.207-.822.607.114-.583.575-.232Zm11.569-1.662.24.364-.917.264.1-.408.582-.22ZM4.933,323.17l.715.249.037.362-.564.153.022.229-.475-.378.394-.145-.129-.469Zm.409-.877.383.294-.008.382-.527-.358-.129-.289.281-.029ZM3.8,320.757l.292.354-.148.769-.339-.218.048-.515-.534.483L3,321.457l.8-.7Zm.123-1.687-.011.516-.674.777.067-.717.619-.576Zm-.343-.407.136.346-.346.209-.077-.431Zm-1.3-2.616.523.294.376-.146-.475,2.04-1,1.032-.538-.124.243-.121-.258-.25-.412.161.107.226-.383.012.063-.246-.373.149-.155-.4.243-.338.862-.029.8-1.076.383-1.181Zm-.517.091.064.937-.587.422,0-1.235Zm2.348-.466.269,1.109L3.33,317l.254-.5-.115-.472Zm-1.476-.46.363.01.185.749-.786-.053-.093-.333Zm.752-1.055,0,.942-.859-.089-.361.444.038-.72,1.18-.576Zm1.2-.035.3.3.354.087-.855.789-.347-.142.036-.316.583-.431-.068-.29Zm-.669-.8.483.993-.995,1.1.336-1.2-.172-.239-.368.142.262-.626.453-.17Zm-.689-.04-.265.88-.866.489-.1,1.191-.221.177-.228-.254-.505.46.015,1.468-.376.158-.608-.726.553-.636-.284-.868.288-.02.563-1.147.763-.04.335-.872.479.177Zm35.508-10,2.528,1.068.706-.666.425.461,1.4-.763,1.7.047.6.547,1.823-.545.17.712.618.258.24-1.038.579.114.319.594,1.436-1.156.435.128,0,.648,1.068.559.6.028.257-.3,1.128.351.514-.135-.369.457-.62-.192-.375.29.585.61.833-.206h0l.376.759.745-.055h0l-.077.639.371.779.571-.04-.1-.59.584-.826.582.5,1.442.223-.05.554.518.846,1.8-.066.74.576.9-.549-.373-.288.491-1.268.165-.172.508.251L65.1,306l.185,1-.31.465,1.128.639.544-.361.272.156-.271.444-.24-.137-.163.613-.473-.093-.826,1.791.418.675,1.454.588-.33.681.622.593.6-.243.55-.674.035-.6.508-.19-.051.585.585.538-.115.881.26.864-.83,1.005.008,1.081.176.3.591-.184.78,1.021.388.082.066,1.256.846-.559,1.108.47-.314,1.085.283.636-.34.749.271.173.676-.222.291.625.512-.665.243.347.651-.176.824,1.586.592-.063.112-.465.315-.052.262.572.555.077.157.525.758,0,.426.381-.089,1.31.743.385.325-.575.511.055.559,1-.075.342.534.467h0l.637,1.193-.387.222.271.456.509.486.677-.356.364.944-1.006,1.844-.251,1.256-1.576-.018-1.487,1.833L78,334.178l-.426.612.11.253.561-.254-.1.617.335-.032.261.676.282-.516.224.353.34-.172.055-.485.183.585.655.058.533.555-.48-.08-.411.6-.269-.131-.208.656-.753-.149-.3-.565-.53.164-.17,1.07.43.6-.21.312.623.129.1,1.653.324-.112.345.271-1.1,1.02.745.416-.1.464h0l-4.45,1.872.457.467-.182.4.864.9-.143.789-1.3.286.489.382.482,1.464,2.772-.91h1.546l.291.4.4-.269.425.207.472-.423.3.343-.012.649-1.035.469-.274-.239-.086.294-1.243-.064-.264.221L78,349.5l-.247.891-1.059.391-.21-.147-.058,1.5-.75.5-.794-.072-.127,1.362-1.073.068-.066.411-.734-.2-.6.278-.308-.619-.33.117.95.848,1.229-.081-.138.834.433.642.436-.173.115.378,1.194.183-.151.612.664,1.422.059,1.39-.38.267-.468-.087-.291.5-.543.007.3.38-.094.729-1.2.687-.626-.156-.4.227-.45-.24-.391-.81L70.989,361l-.53.29-.21-.905-.383.1-.182.647-.494.316.5.674.537.163.013.572.251.043-.942,1.785-.509.343.426.54.086,2.066-.738.192-.089-.293-.2.211-.553-.123-.293.816-.965.389h0l-.27-.253.429-.569-.244-.245-.851-.136.058.483-.333.229-.418-.244-.146.245-.074-1.037.446-.033.634-.827.274.057-.232-.435-.644.173-.073-.79-.219.48-.536.055-.084.451-.323-.372.009.375-.4-.017-.084.289-.505-.308-.284.209.608.94h0l-1.272-.191-.529.567.01.582-.442-.054,0,.333-.852-.163h0l.24-2.2.873-1.118.84-1.834.17-1.23-1.4-4.4.022-.691-.288.138-.648-1.617.626-.253-.866-.1.207-.985-.712-.174-.106.961-.42.174-.118-2.093-.406-.977.5-1.288.947-1.185-.686.44.383-1.237.409-.167-.288-.154-.763.722-.376-.857.409-.921.965-.5,1.146.091.634-.325-.734.067-.579-.377-2.635.361-.4-.528.438-.492.39-1.264-.689-.477-.206-1.4.6-2.8.453-.718.87-.235,1.415.629.726-1.044.917.319.324-.151.162-.626-.243.451-.39.055-.306-.57-1.216.737-.851-.108L59,338.008l-1.234.594-.052-.439-.682,1.1.089-.571-.291-.024-.472-.9-.557-.26.255-.562-.438-.387-.243.2.442.306-.281.541.539.215.037,1.009-.224.4L55.31,338.2l.077.949.387.53-.2.262-.27-.479-.161.838-.262-.076-.6,2.839-.49-1.685.593-.35.151.155.022-.653-.859.765-.026.541-.173,1,.431.7.165,2.278.549,1.6-1.1,2.71-1.289,1.534-.225.689-.435-.282.28.38-.2.432.421.7-1.267.6-.14.309.041-.76-.45.926-2.081.7-.305.214.132.273-1.216.249-1.983,1-.674.024.015.368-1,.746-.829-.06.089.241-2.329.782-.708.336-.081.3h-.774l-.181.3L36.8,360.05l-.961.444h0l-.452-.625h0l-.127-.147.3-.008v-.432l.351.005.031-.428-1.051-.375L36,357.992l-.176-.846-.544-.36-.994.137-.39-.414-.831,2.077L33,359.731h0l-.785-.091-2.329-1.177-4.5-3.584-5.129-6.053.678-.706-.35-1.028-.173.258-.648-.091.553.523-.291.131.38.31-.251.461-6.274-5.773-3.644-4.23-.284-1.069.645-1.469,1.1-.946.236.12-.549.562.331.527,1.662-.4.136.315L12.89,337.6l.991.79,1.157-.479.184-.554,1.135.2.873-.291.513-.739-.339-.694.693.442.151.706,1.231-.048.125-.5.464-.028-.015-.679-.346-.112.748-.332.217.619.2-.156.5.6.512-.778.45.108.808-.892.348.189-.062-.492L24.577,334l.347.232,1.3-.068,1.061-1.6.132-1.021.667-.348.671-1.63.921-.89.933-2.061-.745.185-.475.458-.2,1.19-.52.257L27.212,328l-.232.329-.774.2-.512-.26.118.521-4.425,1.066-.608.444-.619,1.145-.833-.364-.56.1-.615-.481-1.091.273-1.554-.8-2.093-.14-5.077-3.3-.733-.188-2.225-1.93-.093-.273,1.157-.535-.412.049-.052-1.162-.409-.494-.623-.08.018-.474-.328-.028-.442-.652-.181-2.407.155-.355.265.036.055-.523,1.433-.98L6.368,316l.94-.513-.269-.2-1.485.282-1.043,1.174-.148-.98.416-.158.347-.654,1.2-.541-.563.056-.329-.4-.1.283-.395-.024-.285-.34.125-.23,2.685.017.31-4.836.713-.208.283,1.458.528.183.792-1.178.707.74,1.225-.629,1.417.493,1.466-.6,2.532.316,1.32-.333,1.644,1.5,3.662.126.778-.385.792-1.427,6.046-1.891.49.289-.527.818.2.5-.174.843,1.075.4,2,.035,1.172-.5-.119-.491.99-.809.513-.209.647.193,1.122-.795-.17-.427-1.473-.16.1-1.18-.226-.271.295-1.3,1.149-.733Z" transform="translate(0 -302.918)"/>
</svg>
