<svg xmlns="http://www.w3.org/2000/svg" width="41.474" height="49.911" viewBox="0 0 41.474 49.911">
  <path id="IN-HR" d="M162.008,155.522l.535-.372.074.532.487.393.659-.411.685,1.332.336.192.25-.24-.124.576.325.539.273-.2.572.165.994.839.075,1.406-.61.5.259.4.72.241.229.7.652-.063.782.475.469-.128.724.665.662-.716.037.383-.49.493.934-.064.3-.559.438.8.425.2h0l.227.21-.288.919-.578.446-.71,1.442-.66.31-.339.765.218.179-1.91.9-.1.71-1.1,1.472-.369,1.731-.469.343.349.994-.765,1.609.319.731-.329.3.723,1.4-.18.481.278.319-.4.2.041.41.45.218-.324.956.193.449-.25.282.2.652-.238,1.161,1.222,1.518-.319.765.412.783-.523.217.068.349h0l-.632.382-.141-.36-.7-.29-.587.725-1.184.244.163,1.749-.492.729.217.3h-.742l-.307.686-.263.014.035.521.554.725,1.182-.28.492.2.007-.429.566.417.314-.077.467.4.141.778.63.513.993-.308-.2-.531.224-.312,1.261-.369h0l1.815,1.444.261.834-.4.306.425.468-.041.4-.338.165.98.332-.34.271.046.422-.4-.154.04.405.666.052-.61.328-.054.933-.187-.15-.124.331.136.631.745.765-.327.379.355.157-.241.39-.669-.016-.136.716-.613-.163v.558l-.969-.008-.843.8h0l-.176-.143-.408.455-.5-.543-.333.557.159-.357-.4-.1.011.357-.331.231-1.17-.655-.234.63.619.216.158.38-1.137-.049-.305,1.27-.482-.269-.419.248-.288-.613.446-.022-.4-.452.261-1.529.3-.024.162-1.275-.262-.087-.006-1.1.572-2.2-1.476-1.247-.652.227-.131.82-1.86.912.117,1.171-.81.139-.806.592,0-1.032-1.124-.159.582-.227-.651-.428.163-.282.489.08-.356-.726-1.25.252-.542-.592-.754-.021,1.015.758-.772.413.758.4-.177.575-.585.152-.2-.5-.409-.181-.979.176.485.416-.781.492.325.394-.173.869.427.241-.074.528.4.345-.668.5-1.125-.917-.509.31-1.149-.253.19-.67-.644-.113-.07-.245.2-.271.327.213.315-.718-.4-.246.452-.138-.272-.313.532-.087-.063-.268.4-.293L152,198.57l-.412.574-.033-.444-.61-.2,1.215-1.194.512.075-.017.351.369-.162-.634-.719.105-.322-.555-.264.1-.592-.85-.567-.428-.761-.44-.374-1.577-.211.105-.756-1.978-1.337-.146-.851-.827-.188-.355-2.056-.4-.567.2-.742-.614-1.361.656-.747-.072-.538-1.013-.087-.059-.733-.658-.085.207-.884-.465-.216.524-.7-.066-1.113-.5.112-.169.433-.4-.149.057-.876-1.27.891-.577-.513-.952.638-.4-.087-.506-.834-.648.235-.5-.155-.344-1.261-1.141-.6-1.121.734-1.412-.25-.111.628-.611.044.013-.516-.516-.862-.352-.1-.029-.375.182-.26.479.121.471-1.046-.635-.556.516-2.9-.249-.239-.807.416-.714-.041-.089-.667,1.171-1.2-.264-.567-.38-.079.186-.546h0l1.7.594-.094-.273.675-.718.44.114,1.024-.472.643.514.423-.142.05.449.4-.154.984,1.422,1-.347.256-.553.258.643-.3.365.343.35-.224.3.847.393.018-.594.357-.289.645,1.327-.494.411.021.573-.5.383.205.5.636.359.03.923.963-.335.112-.312-.317-.331.493-.927.434.175-.2-.529.576-.267.869-1.479.895.732.592-.089.164.356.59-.058.161-.41.956.276.112-.818.871-.257.324.28.437-.08.667,1,1.135.241.7-.378.24.144.557-.905.514.144,1.666-1.113-.761-.3L154,170.6l.5-.237-.172-1.11.325-.165-.226-.166.751-1.024-.854-.467h.283l-.107-.367.627.613.952.166.345-.3-.306-.332.85.334.155-.464-.274-.393.387-.293.556,1.562.514.055.136.315.713-.34.29.363.322-.079.34-.391.162-1.542-.459-.142.1-.243-.372-.393-.682.452.2-.582.825-.087.859-.852.538-.107.31-.412-.361-.085-.148-.439.765-.7.671.416.318-.34.634.735v.409l.624-.446-.511-.809v-.671l.417-.516-.468-.345.377-.916-.727-.632.048-.6-.364.363-.2-.465h0l.111-1.206h0l.247-.444-.253-.62-.779-.681Z" transform="translate(-131.44 -155.151)"/>
</svg>
