<svg xmlns="http://www.w3.org/2000/svg" width="45.334" height="44.946" viewBox="0 0 45.334 44.946">
  <path id="IN-HP" d="M158.646,108.3l.677-1.066-.359-.748.211-1.044-.513-.9-1.049-.894.176-.944.784-.006,1.044.714,1.81-1.325.152-.571,1.905-.44.5-1.133,1.547-1.314,1.026.108,1.04-.471.456.042.6.705,1.365-.269.338-1.114.3-.1.325.3.339-.154-.33,1.442.544.689.435-.031.535,1.279,1.073.7.489-.16.525.417.815-.112.13,1.053.367-.271.722.563.141.482.258-.177.622.354.3.541.38-.086.411-.954.9.377.389-.393.464-.013.854-.894.921-.248.158-.422.627.225,1.031,1.052-.381.643,1.143.576.442.839.454.148-.157,1.153,1.052,1.683.706-.086-.025-.689.417.179.372-.6.373.312.412-.579.8.155,1.1-.689-.107-.4,1.11-.38-.109,1.42.34.77-1.222.722.034.762-.274.336.423.5.956-.848.376.283h0l.454.218-.092.654,1.07.6-.726,1.044.027,1.073-.357.591,1.329-.056.71.492-.247.944.306.575.67.234,1.108,1.561.525.123-1.057,3.234.442.461-.177.354.305.771.6.034.682,1.165-1.651,1.512.132.522.428-.089.618.591-.252.8.674.311.023.8,1.033,1.105h0l.116.529.783.732.291.975-1.661.124-.7-.619-.314-.9-1.955.162-.176-.423-.518-.225-.773.462-.888.046-.345-.629-.327-.243-.291.188-.547-.67-.769.042-.066.345-.323-.082-.483.565-1.125.054-.8.634-.767.086-.208.472-.789-.37-.892.374-.592,1.14-.56.3.328.838-.383.594.275.252-.706-.363-.388.271.146.578.663-.024-.083,1.011-.595-.35v.8l-.745.947.7.9-.1.384.606.342.039.686-.7.324.429.546.549-.012.1.472-.151.336-1.594.921-1.3.331-.24.4h0l.157.308h0l-.425-.2-.438-.8-.3.559-.934.064.49-.493-.037-.383-.662.716-.724-.665-.469.128-.782-.475-.652.063-.229-.7-.72-.241-.259-.4.61-.5-.075-1.406-.994-.839-.572-.165-.273.2-.325-.539.124-.576-.25.24-.336-.192-.685-1.332-.659.411-.487-.393-.074-.532-.535.372h0l-.76-.884-1.36-.633-.147-.765.355-.88-.483-.271.015-.857.6-.469-.125-.22-.6.167.279-.538-.412-.455-.471.386.029-.445-.253.336-.051-.323-.341.151-.29-.573-.473.426.227-.361-.916-1.326-.214-.782-.053.4-.575.206.276.769-.54.168V128l-1.635.194-.087-.54-.414-.317.245-.814-2-3.628-1.073-2.668.658.042-1.021-2.119-1.462-.7-1.253-1.053-.537-.246-.674.175-.262-.246,1.1-1.3-.552-.322.031-.778,1.51-.615,1.426-1.661,1.172-.59-1.077-1.436Z" transform="translate(-154.749 -97.534)"/>
</svg>
