<svg xmlns="http://www.w3.org/2000/svg" width="101.236" height="77.296" viewBox="0 0 101.236 77.296">
  <path id="IN-JK" d="M122.557.762l.757.889,1.513-.063,1.072-.064.945-.762,1.009-.381,1.009.508,1.071,1.588L131.2,4.32l1.64,1.906.712,1.423,2.144,1.4,2.081,1.016,1.765,1.652,2.081.7,1.639,1.715,1.009.889,1.7.19,1.45,1.588.063,1.143-.315.953.442,1.207.757,1.143,1.7.508h2.081l2.333.7,1.387,1.27.568,1.651.63,1.143,2.207.254,2.536-1.168L164,25.054h1.765l1.28-2.033,1.45-1.27,1.7-.381,1.387-.572,1.261-.952,2.207-.191,1.829.572,1.135.635.757-.445V18.765l.693-.826,1.135-.317,1.576,1.27.82.953,1.009.254,1.955.444,1.513.445,1.261-.572.883-.317.82,1.334L191.2,22.7l1.072.571,1.324.953.378,1.016-.315,1.08.189,1.143-.063.825-.567,1.08-.063.762-.63.889-.126.953.063,1.651-.5,1.27-.5,1.207L191.07,37l-.252,1.4-.946.509-1.034.457L187.514,40v1.27l-.5.826-1.2-.064-1.324.064-.63.571.126.7.568,1.016.323,1.332-.552,2.382-1.3,1.429-.788.317-1.261-.317-1.419-.476-.867.4-1.261.238-.748.238-.316.755.276,1.111.473.993.552.914.867,1.429-.236.874-.67.6-.945.4-.158.874.118,1.032-.3.457,1.957,1.812.112,1.071,1.466.594,2.976.2.075.494-.8,1.858-.032.818,1.275,1.423.3,1.367.824.68.411,1.409-.251,1-1.291.336-1.8,1.562-.714-.573-.735.2-1.014.733-.293,1.459-.732-.183-.956.639-.829-.383-1.771-1.7-.232-1.459.221-.481-.456-1.544-1.214.74-.381.666L171.372,72l-.786.617-.437-.1-.537.37-.02.7-.376-.283-.956.848-.423-.5.274-.336-.034-.762,1.222-.722-.34-.77.109-1.42-1.11.38.107.4-1.1.689-.8-.155-.412.579-.373-.312-.372.6-.417-.179.025.689-.706.086-1.052-1.683.157-1.153-.454-.148-.442-.839L160.98,68l.381-.643-1.031-1.052-.627-.225-.158.422-.921.248-.854.894-.464.013-.389.393-.9-.377-.411.954-.38.086-.3-.541-.622-.354-.258.177-.141-.482-.722-.563-.367.271-.13-1.053-.815.112-.525-.417-.489.16-1.073-.7-.535-1.279-.435.031-.544-.689.33-1.442-.339.154-.325-.3-.3.1-.338,1.114-1.365.269-.6-.705-.456-.042-1.04.471-1.026-.108-1.547,1.314-.5,1.133-1.905.44-.152.571-1.81,1.325-1.044-.714-.784.006-.176.944,1.049.894.513.9-.211,1.044.359.748-.677,1.066-.9,1.406-.774.169-.456.917-2.419,1.091L131,77.3l-.146-.538-.3-.116.06-.354-.759.248-1.229-.206-1.682-1.07-.092-.3-.651.155-.754-1.031-.61-.19-.76.7-1.91-.764-1.816.178-.746-1.99.451-.741-.346-.955.622-1.919-.731.266-.368,1.031-1.1.269-.751.469-1.829-.191-.883-.635-1.324-.635-1.009-.953-1.576-.571-1.324-.953h-2.017l-.442-.952-.694-.636-.883-.762.378-1.588-.567-1.144-.189-1.969.694-.826-.5-2.033.315-.763.063-.952-.946-.953.063-.889.63-.762L104.84,50.3l-.945-.952.063-1.842-.189-1.487-.63-1.588.252-1.588v-1.08l.819-.889,1.388-.381,1.071-.444.063-1.207.819-1.461.883-.127,2.144-.063.757-.572.5-1.906.568-1.207v-1.27l-1.135-1.143-1.576-.7-1.262-.381-.757-.572-.441-.952.252-1.016.883-.572.378-.762-.63-1.4-1.324.063-1.513-.19-1.261-.381-2.207-.191-1.2-1.105-.567-1.143-.442-1.651-1.7-.826-1.955-.445-1.262.826-1.386.063-.505-.762-.063-1.4.316-.7-.316-1.016.252-1.016.63-1.461,1.513-1.08,1.576-1.334L98.157,9.4l1.387-1.779.568-1.779,1.26-.825,1.955.19,2.459.254,2.775.127,1.324-.318-1.2-1.334-1.057-.587.525-.76,1.288-.178,1.135,1.017,1.639.38.819-1.016,1.135-.254,1.071-.509.883-.444,1.388-.7.946-.762L119.846,0l1.071.191Z" transform="translate(-92.734)"/>
</svg>
