<svg xmlns="http://www.w3.org/2000/svg" width="61.676" height="49.071" viewBox="0 0 61.676 49.071">
  <path id="IN-JH" d="M319.19,300.083l2.9.322L324.1,300l.8-.22.845-1.317.723.377.836,1.912.4-.342.08-.518.441.437-.085-.536.2-.119.388.294.232-.263.294.328.3-.309-.144-.181.315-.026.443.924-.427.321-.013.437.494.287-.2.113.276.4.615.089.535.446-.068.405.492-.106.518.752.424-.764-.053-.537.586-.112.089-.414,1.138.272.274-.914,1.544-1.068.495.262.024.861.607-.15.237,1.324.935-.056.29-.529.835-.042.3-.362-.142.776.318.11,1.061-.734-.248-.487,1.741-.5.007-.43,2.706-.351.422.383.246-.595h.418l.11-.553,1.168.308-.2-1.537.625-.386.532-1.6.537.347,1.333-.02.962,1,1.33-.695-.153.56.63-.073.5.6.118,1.486.818.269.3-.389.62.525.779-.121-.25.377.112.727-.442.679.95.267.86.942.486.154.181-.777.3-.045.227-1.354.544-.253.746-1.023.868.649.838-.221.256-.617.348-.026.38.37-.073.437.487-.054.234.26.289-.246.461.418-.173-.7.425-.823,1.6.527.613-2.848-.24-.3.477-.487.485-.043.094-.4-.15-2.033.856-.958.52-.239.537.243.43-1.965.616.265.291-.329,1.065.483.007-.679.306-.317-.188-.481.772.2.1-.725.433-.256.356.544,1.024.018.314.79,1,.15.057.377h0l-.147,1.9,1.333.927,1.187,1.443.091.486-1.12.637.125.417-.408.022.119.429-.293.43-.255.016.03-.36-.258.32.287.407.81.243-.188.695.355.227-.383.467.226.206-.383.027.494.247-.3.455-.52.17-1.045-.449.49.535-.148.79.153-.286.215.237-.506,1.166.336.116-.713,1.5-.61.169-.385.665-.605.057.026.451.728.37-.04.529-1.594-.085.506.389-.509.324.092.313-1.095-.437-.032.921.256.177-.369.381-.648.077.319.391-1.344-.4-.381.192-.166-.123.226-.387-1.253-.148.312,1.092.4.152.036.831-.32.372-.295-.5-.073,1.175-.32-.067-.4-.146.094-.195-.859-.185.471.689-.234.366-.326-.01-2.086-1.021-.4.3-.549-.509-.262.255-.053.265-.669.478-.37-.292.357,1.021-.367,1.07-.715.142-.086-.235-.5-.011-1.355.34-.836.612-1.178-.01,0,.3-.778.359-.3.6-.056.675.242.2-.953.564.188.223-.189.12-.285-.306-.468.312-.246-.233.187-.493-.236.2-1-.247-.01-1.373-1.3-.233-.478.467.483.841-1.371.566-1.033-.227-.042.873.435.57-.39.083.155.595-.685.877.07.983.344.011.762.937,1.617-.2.147.505,1.175.37.179.61.828.707,1.138-.308,1.258.562.307-.3,1.076.07.2.342.372-.3-.291.619-.449.145-.188-.219-.5.376.4.386-.4.522-.221,1.21,1.2,1.081.433-.276,1.043.681.449,1.405,1.436.049.513,1.058-.125.35-.582-.017.224.725,1.083.419-.2,1.027.757.437-.007.6-.919.04-.06-.21-.027.372-.129.349-.32,0-.118.035-.587-.056h0l-.95-.258-.073-.4-.725-.193-.165-.331-.611-.005-.43-.614-.816.252-.067.313-1.069-.63-.968-1.438-2.288-.566-.913-1.132-.219.619-.7.3-.209.631.733.454.165.708-.376.53.365.126-.159.28.462.054-.975.9.755.834-.348,1.094-.767,1.288-.4.2-.091.548-1.919-.331.361-1.254.568,0-.381-.486-1.6.891-.489-.6-.71.228-.683-.175-1.926-1.033-.413.058-.068.5-.466-.077-.3.257-.918,1.531-.267-.615-.508-.359-.022.287-.2-.319-.486.057-.311-.474-.684-.162-.552.442-.3-.068.582-.391.621-2.3.583-.263-.006-.341-.346,0,.067-.387-.251-.108-.153-1.866-1.431.569-.1-.176-.71.475-.229-.363-.583.243-.329-.294-.73.07-.118.391-2.881-.076-.663.2.013.32-.395.066-.289.435-1.815.165-.566-.523-.7.027-.553-.419-.232-1.005-1.757-.718h0l.034-.7,1-.964.922.031.938-.5.063-.954.382-.4.412-.006.587-1.386.535-.071.254-1.071-.245-.524-1.22.2-.1-.4-.72.179-.361-.682-.556.864-.246-1.7-1.27-.822.485-2.77-.356-.638-.489.307-.54-.411.049-1.074.705-1.288-.208-1.277-.917.144-.035.861-2.127-.529-.8-1.2.195-1.048-.451-.957-1.781-.615.2-.312-.442-.2-.478-1.89-.784-.207-.3-.6-1.35-.256h0l1.039-2.4-.345-.709,1-.732-.285-.57-.395-.071-.248-.686.154-.665Z" transform="translate(-316.874 -288.045)"/>
</svg>
