<svg xmlns="http://www.w3.org/2000/svg" width="59.452" height="94.651" viewBox="0 0 59.452 94.651">
  <path id="IN-KA" d="M124.1,482.938l-.391-.283.492-.1-.04-.545.978-.49.3-.445.3.613.558.026.964-.474.324-.972-.594-.109.393-.546.256.55.24-.011-.261-.671,1.04-1.925-.451-.224-.613.3-.29-.246.881-.8.723.322-.043-.825.359-.57-.13-.592-1.07-.365-.017-.32-.9-.156-.258.329.2-.324-.341-.465.032-.749.234-.158.246.359.1-.409-.351-.086-.05-.716-.565-.094.048-.6-.413.368-.207-.261.433-.118-.124-.571.5.589.2-.712.48-.05-.04.253.362.15.18-.7.915-.362.066-.776.274.473.708-.091.3,1.125.826-.329.086-.43.631.032-.4-.459.473-.519.027-.558,2.08-.771.913.012-.157-1.193.691-.3.042-.382-.534-.281.151-.214,1.219-.008.022.221.776-.319.673,1.043h.644l-.086.437.433.024.888-.47.075-1.118.754.031.656-.331.481.179.489-.3.326.589,1.032-.288.072-.613.447.065.015.465.456.258.392-.128-.031-1.048-.378-.01.459-.367v-.435l-.67-1.056.452-.53-.03-.739-.715-.582.1-.543-.375-.1-.083-.461.494-.125.262-1.193.556.273.181.631.608-.129.866.72.3-.733.494.516.335-.439.085.886.5.411,1.637-.42.321.337.563-.5.556.354.167.608-.046-.718.956-.36.418.614.9-.27.115.547.39-.017.35-.8-.611-.08.148-.826-.524.029-.038-.508.587-.344-.419-.012.3-.387-.346-.283-.111-.728,1.114-.13.173-.561.8-.227-.039-.737.495-.024V453.7l.658-.015v.807l.547-.922.646,1.122.363.11.1-.643.391-.153-.158-.626.624-.072.337-.55-.672-.426.042-.572.824.414,1.507-.653.016-1.65.49-.09-.1-.476.282-.327-.606-.266.419-.961.448-.05.478.361.118-.295.329.439.679-.005-.177-.592.722-.3.272-.9.473.041-.143-.486.658-.81-.064-.533,1.024-.632.328.329.366-.243v.658l.535.17-.681,1.09,1.029.058.385.652.594-.259-.01-.4.537.215h0l.7.187-.513,1.083.444.68.037.733-.727.638.617.609.715.237.1.333-.125.32-.269-.159-.1.766-.416-.075.153.527-.317-.033-.305.764-.315-.122-.2.354-.085.263.815.257-.053.237-1.481.778-.138,1.531.665.211.154.354.342-.45.278.331.549-.186.025.419,1.245.377-.022.456-.476-.116.062-.307-.163.38-.391.085,0,.358-.5-.139-.008.343-.828.032.336.322-.1.445-.383.251-.63-.228-.233,1.144.272.172-.983.781.245.153-.514.655,1.361.8.488,1.344-.61,1.365.236,1.8-.446-.056-.188.952.576.036-.023.467-.643.215.217.349.483-.128-.069.869-.964.263.317.656-.48.1-.17.368-.924-.1-.061.247-.753.077.656.9.773.322.912.236,1.1-.181,1.288.53-.017.7-.336-.15-.414.485-.432-.072-.181.25.016.352.291.013-.36.9.041.592.3.169-.248,1.008.257.392-.009,1.124h0l-3.456-.51-1.4.237-1.028.571-.58.933.552.119-.274,1.224,1.084,1.041-.117.468-.461-.383-.692.262-.035,1.845-.726-.087-.02.213.756.768.453,1.561.638-.075.076.516.431.057.215.366-.574.521.494.377-.006.617-.34.086.291.305-1,1.658-.5-.075.078-.327-.613-.005-.25.264-1.394-.252-1.058-.854-.3.267.137.753-.276.643.85.259.485-.179-.208,2.2-.907.34.235.613-.5,1.821.525,1.02.369.064.566.749,1.369-.135-.393.455-.029.625-.378-.192-.4.319-.053.6.942.718-.335.3.172.439,1.483.008.341.414.395-.054.091-1.018.534-.689,1.058.366.653-.275-.021.755,1.056.093-.051.538.376.523.423-.276-.54-1.141.141-.407.752.207.164.515.551.006.055,1.655-1.468-.2-.172.489-.384.072-.042.387.6-.308.076.207-.919,1.1.758.213-.1.523.729.005-.3.447.262.368-.471.4-.019-.244-.558.015.072-1.174-.534-.581-2.2.455-.348-.692-1.292-.152-.2-.614.153-1.022-1.037-.227-.062.32-.6.094-.1.383.575.052.637.848-.582.582,1.39,1.329.072.386-.318.055-.648,1.08.321.982.25.134.2-.529.447.446.467-.3.946.085-.058-.9-.509-.392.513-.1-.087-.586.279-.241.023.788.347-.292.087.27.3-.458.221.758.749-.243.174.431.523-.273.863.144-.21.491.647.03-.1,1.658.44-.054.058-.37.331.289.1-.8.483.375.525-.371.34.222.205-.107-.349-.276.513-.279.28-.023-.086.345.422-.125.175.392.054-.789.871-.306-.032-.315.686-.338-.283-.657.158-.359.911.05.326.465.727-.73.154.783-.472.179.028.825.281,0,.257-.568.7.12.044-.463.961.627.062.874-.442.594.324.318-.053.353-.548-.052-.076.29.3.433.995-.183.063.345.444.1-.142.816.589-.421,2.163.124-.473,3.045.56.31-.4.168.322.223.44-.21.153.283.475-.13.651.714.462-.6.29.51-.117.788-.368.232.373.419-.8.5.255.3-.345.214.035.394-.7.289.084.93-.468-.073.174.926-.762.075-.437-.448-.561,1.1-.822,0-.271,1.291h0l-1.326-.237-.981-.985-.422-.048-.178.687-.266,0-.475-.732-.276.485-.207-.113.335-.464-.222-.3-1.762.607.194.64-.9,1.673-.366-.133-.338.336-.319-.342-.848.226.1.5-.369.858.112.693.369.1-.411.427.661-.121-.068.936-.215.743-.81.953-.962.3-.06.81,3.458.475.558.838-1.048,1.3-.385.974-2.336.078-.1.765-.32-.17.046.671-.491,1.2-.793-.381-.443.269L166,535.6l-.572-.056-.2.253-1.648.28.086.682-.5-.166-.2-.706-.454.169.124-.26-.361-.259-.42.026-.175.487-.795-.246-.944,1.887.3.573-.181.37-.276-.308-.932-.181-2.469.006-.261-.818-.48-.373-.7.582-.37-.057h0l-.359-.566.3-.217-.149-.492-.964.308-.835-.989-.71.047-.457-.864-1.007.171,0-1.621-1.5.642-1.561-.236-.694-.591-.328-1.18-1.1.123-.2-.519-.52.124-.362-.7-.772-.114-1.248-1.84-.843,0,.03-1.092-.74-.547.013-.606.741-.114-.106-.5-.977.553-.079-.465-.713-.38-.057-.625.677-.286-.679-.36-.713.667-.285-.85-.561.11-.215-.221.1-.585-.856-.292-.04.427-.468.086.025-.744-.565.075.067-.186-.364-.1.316-.416-.217-.409-1.661.49h0l-.611-1.333-1.669-6.753-.324-3.906-.847-3.182-.487-1.095-.513-.251-.4-.79-.406-2.2-.387-.552-1.168-3.827.523-.389-.38-.308-.115.435-.615.019-.2-1.109L126,497.02l.2-.183-.243-1.026-.424-.454-.394.412-1.452-1.109.372-.084.1-.569-.251-.008-.2-.672h0l.557-.341.478.158-.043-.578.527.407.773-.622-.112-.331.539-.675-.318-.771.149-.65.428-.562-.2-.539-.652-.474,1.116-.486-.176-1.024-.606-.294,0-.751-.347-.64.41-.5-.437-.549.189-.6-.176-.615-.314-.17-.243.241-.306-.44-.222.4-.625.024Z" transform="translate(-123.692 -443.987)"/>
</svg>
