<svg xmlns="http://www.w3.org/2000/svg" width="33.546" height="60.689" viewBox="0 0 33.546 60.689">
  <path id="IN-KL" d="M139.851,567.788l1.661-.49.217.409-.316.416.364.1-.067.186.565-.075-.025.744.468-.086.04-.427.856.292-.1.585.215.221.561-.11.285.85.713-.666.679.36-.677.286.057.625.713.38.079.465.977-.553.106.5-.741.114-.013.606.74.547-.03,1.092.843,0,1.248,1.84.772.114.362.7.52-.124.2.519,1.1-.123.328,1.18.694.591,1.561.236,1.5-.642,0,1.621,1.007-.171.457.864.71-.047.835.989.964-.308.149.492-.3.217.359.566h0l.018.489-.594.012-.4.538-.693.25-.357-.387-.6.386.19,1.42.5-.2.568.4.17-.19,1.018.34.5.707.81.471.381-.067.027.8-1.244.838.084.681.463-.306,1.8.232.98-.619.38.3-.456.871.631.314-.022,1,.734.069-1.14.149-.761,1.45,2.234.843.3.732.635.105.122.393-.557,1.29.227.619-.9.042.328.558-.3,2.3.425.746-.261.87.25.237.342-.168-.027.31.573.571.866.218.9-.533.177-.5,1.474-.82.785.081-.1.465.478.7-.053.447.45.18-.274,1.189-.955.359.8.975.145.9-.323.142-.472,1.035.326.229-.2.465.332.35-.321.116-.021.785-.243.083-.5,1.475.584.025.784.528.654-.378.272.4.214-.429.128.926.606.4-.234.617-.588.265-.3,1.388-.361.006-.229.492v1.1l-.4.4.2.486-.741.734-.182.7-.662.332.637.871,0,.42.322-.022.508.781-.376,1.122-.506.547-.281-.034,1.457,2.687-.234.485-.81.107.3.747-.99.794.329.887-.5-.14-.338.334h0l-1.613-1.169-4.551-6.057-1.135-.889-.365-1.56-2.4-5.346-1.334-7.4.21-.056.563,1.074.861.921v1.632l.391.273-.438,2.084.346.253v-.263l1.573-.071-1.139-.467.188-.61-.118-.527-.247.041.148-.666-.413-.09-.07-2.174-.494-.737-.217.071.155.409-.221-.064-.918-1.9.2-.667-.781-.914.5,2.24-.258.052-1.654-5.444-2.509-5.56-.7-3.057-1.617-4.531-.7-1.286-.866-.391-.995-2.775-1.82-2.121-.66-.29-1.187-1.986-.468-.247-.387.254-.262-1.218-2.763-5.486-1.41-3.479Z" transform="translate(-139.851 -567.297)"/>
</svg>
