<svg xmlns="http://www.w3.org/2000/svg" width="21.255" height="46.378" viewBox="0 0 21.255 46.378">
  <path id="IN-LD" d="M94.849,636.412l-.025.3-.236.253-.236,0-.17-.066-.007-.082.074.067.228-.018.2-.116.177-.338Zm7.727-24.163-.048.581-.081.056-.085-.2.074.011.055-.086Zm-17.556-.433.051.156-.077-.026Zm17.681-.263.055.192-.041.16Zm-13.515-5.687.1.071,0,.139-.446.284Zm13.747-3.3-.018.053.338.038-.394.139-.144-.052-.007-.124Zm-19.973.023.217-.4.07-.289.085-.094.077,0-.449.778Zm1.573-1.705-.041.03.037.1-.089.011.018-.128.074-.015Zm.468-.1-.173.135.018-.071Zm5.372-2.477.018.113-.17.233-.066-.083.011-.113Zm-8.338-1.067.018.034L82,597.253Zm9.115-.605-.158.575-.224.5.221-.824Zm2.782-3.224.122.143.033.214-.052.053-.077-.324-.067-.053Zm-10.791-1.4.037.072-.055-.018.018-.053Zm7-1.424.034.192-.155.154.122-.347Z" transform="translate(-81.998 -590.588)"/>
</svg>
