<svg xmlns="http://www.w3.org/2000/svg" width="39.563" height="16.015" viewBox="0 0 39.563 16.015">
  <path id="IN-ML" d="M453.545,278.59l1.952-.854-1.654-1.959.542-.141.288-.441-.141-.739.845-.33.181-.276-.228-.194,1.511-1.221.847.248,1.881-.442.539-.532.418-.057.426.372.646-.387.758.846-.29.914.927-.94.617.331-.3.372.242.2.813-.767.814-.1-.091.622.5.1.422-.649.357.206.613-.2.479.568-.043-.442.356-.065.328.893.819-.013-.377.972.641-.393.391-.056-.38.35.177.126,1.767-.571-.219,1.221.16.689.423.091.686-.347.769-1.357,1.132-.235.338.2,1.075-.471.057-.248-.291.328-.438-.056.751-.775-.394.043.984-1.661.746.158.077.851-.355.368.772.511.675-.719.147-1.555,1.167-.881.75.311-.075.674.689.779.914-.614.819.122,1.065-.193.6-.5.834.251.745-.246-1.87,1.987.1.488.82.07-.605.545-.354.848.1,2.079.905-.654,1.387-.133.683-.419.638.327-.014.6.442.126.481.878.741.161.2.76.4.045.675-.513-.116.806-1.025,1.03.407-.062.146.811.6-.276.077.368.181-.1.589.62.251-.093.312.677.316.04.1.7-.366.527.527.441-1.824.621-.6.872-1.286-.328.243.594-.778-.124-.279,1.041-.5.077h0l-1.044-.3.009-.382-1.516-.275-2.206-1.365-3.785.319-.385-.17-.118.42-.486-.111-.833.529-.516-.338.157-.442-1.9.617-.72-.532-1.028-.032-.909-.471-2.537.1-2.859.608-1.082-.409-.612.433-.617-.253-2.336-.05-.854.449-1.471-.719-3-.491-1.909-1.118-1.817.108.174-.214-.341-1.1.444-1.335h0l.33-.185Z" transform="translate(-452.902 -270.106)"/>
</svg>
