<svg xmlns="http://www.w3.org/2000/svg" width="15.722" height="37.235" viewBox="0 0 15.722 37.235">
  <path id="IN-MZ" d="M504.426,311.112l1.667-.02.189,1.468.587.161.066-.3.606-.221.253-1,.808-.109.169-1.157.881-.323.988-2.423.845,2.089.45-.317.561.073.084-.269.32.254.86-.113h0l.316.186-.037.637.29.05-.466.917.187,1.026-.609,1.387,1.025.352.342-.179.284.843.623-.626.291.482.622.072.094-.495.321-.019.246.365-.15.53.437-.4.653-.027h0l-.039.967.853.824.088,2.451.522,1.15-.63,3.611.225.656-.642.485.384,1.884-.276,1.069.261.169-1.272,1.918-.591-.009-.779-.778-.816.184-.049.675.52,1.178-.393.086-.3,1.4-.225.085.179.954-.278.5.7,1.59-.433.966.291.17.112.816.646.516.235,2.388-.815.209.3.667-.2.313-1.028-.458-.4.179.251,1.371-.694,0-.053,1.695-.282.015-.427-.673-.32.177-.276,1.022L512,342.713l-.307.028-1.681-1.279-.246.061-.2,1.87-.991.589-.062-1.157-.458-1.025.228-.151.3.263.051-.741-1.092-5.6,0-1.35-.269-1.159-.355-.2-.357-1.022-.134-1.044-.195.1-.152-.479-.61-.213.242-1.78-.369-.69-.063-1.9.63-.123-.475-1.111.1-.573-.758-1.611-.305-2.2-.248-.07.183-.909-.355-.522h0l-.121-1.254.363-.026-.159-.469.228-.326.374.082.145-.668-.261-.709.233-.423-.2-.656.3-1.632Z" transform="translate(-503.932 -307.186)"/>
</svg>
