<svg xmlns="http://www.w3.org/2000/svg" width="109.312" height="90.179" viewBox="0 0 109.312 90.179">
  <path id="IN-MH" d="M113.289,365.172l.725.407,1.182-.146.163-.454.7-.169.447-.587.765-.091.035.793.594.239.452.654-.316,1.454.1,1.151.546.12.086.519,3.08,1.022,1.469-.281,2.068.933.761,1.5,1.39.7,1.058-.068.03.377.789-.2.491.289.928-.16,1.058.31.806-.321.855.209,2.848-.275,1.07.08,1.109.589.614-.3.8,1.637-.2.3.375.71-.078.25-.7.087.778,1.14,1.187-.143.26.276,1.255-.029,1.013-.534.46-1.157,1.8.049.5-1.279-.485-.751,2.118-1.876.1-.333-.383-.468.33-.25.1-.82.507.064.247-.313.649.2,2.271-1.745,1.134.136.182-.2.476.476.228-.342.777-.091.041-.551,2.51-.124.885,1.007.387,1.057,0,.921.479.283-.532.186-1.452-.383-.538.335.283.859.411.228.235,1.131,1.292.189.27-.036-.043-.379.655,0,.215.312.317-.365.188.543.38-.08.213-.3.577-.071.079-.307,1.094.493.755-.132,3.059-1.593.154-.86,1.172-.172-.041-.337.5.327.433-.273.321.175.246-.577.571.239.1,1.432,1.041-.382.769.182.243.412,1.789.317.354-.417.342.382.165-.313,1.263.059.211-.223.478.188.117-.376-.48-.588.31-.078-.194-.458,1.077-.377.2.247,1.042.033.792-.877.956.139.117-1.045,1.6.644.606.062.279-.241.965.248.637,1.856,1.47-.185,1.129-.649,1.651,1.023.779.093.273-.462.758.316.929-.284.681-.749.972-.388.956.2,1.464,1.418.54,1.182-.295.439.189.44.491.063.105-.432.494.066,1.428,1.04.841-.086h0l.218.464-.5.686L197,376.33l-.318,1.078.186.861-.313.386.422,1.1,1.144-.026.049,2.4.459,1.161-.962.412-.345.533.4.454.735-.387.729.121-.482,2.954.421.878-1,.38-.414.527-1.7.4.411.729-.371.388.1.266,1.382.072.562.412.077.624-.008,1.11-.334.8-.529.043-.488-.352-.5.285.018.375.995.1.2.426-.873.826-.452-.084-.038.306.766.024.34.289-.118-.738.972.076-.037.631,1.673,1.162-.119,1.128.85.055.6.565.812.08.236.472.447.143.172.752-1.381.549.757.927-1.27,1.044-.8.045-.221-.6-.819.272-.561-1.32-1.224.927-.512,1.042-.712.308.044.7-.82.668-.036.937-.722,1.23v.822l1.072,1.472-.954.829-.456.071.336.586h0l-.871.287-.172.306-.409-.285-.627.278-1.306-1.27-1.066-.248-.5-.652.6-.394-.06-2.286-.244-.361-.75.179-.02-.977,1.13-.935-.305-.785.552-1,.149-1.457-.435-.894-1.485-1.021-.568-.8-.6-.135-1.334.4-.553,1-.6-.229-.131-.4-.958.719-1.345-1.039-.726.08-.125-.347-.809-.316-.1,1.208-.4.5.214.336-.6.1-.994-.948-1.121-.169-.338-.312-.508.144.345-.469-.154-.9-.7-.261-.758.161-.175-1.44-.806-.288-.907.169-1.5-.716-1.026-.059-.429.4-.235-.328-1.042-.283-.179-.6-.636-.056-.222-.456-.336.931.595.146.381.821-.3.952-.789.337-.214.375.547.832,0,.457-.425.192.4,1.434-1.681.629.2,1.127-.359,1.343-1.165-.259-.412.183-.072-.409-1.284-.991-1.168.551.014.253.581.237-.509.169-.276.82.157.228-.362.634.226.641-.6-.167-.073.712-.471-.151-.057.47.132.663.66-.013-.059.463.544-.04-.176.575.545.039.809,1.21-1.394.208-.677,1.73-.382-.322-.329.437.048,1.7-1.047.386-.116-.357-.684.071.05,1.027-.325-.134-.4.285.518.252-.786.253.388.133-.474.959.629.439-.225.372h0l-.537-.215.01.4-.594.259-.385-.652-1.029-.058.681-1.09-.535-.17v-.658l-.366.243-.328-.329-1.024.632.064.533-.658.81.143.486-.473-.041-.272.9-.722.3.177.592-.679.005-.329-.439-.118.295-.478-.361-.448.05-.419.961.606.266-.282.327.1.476-.49.09-.016,1.65-1.507.653-.824-.414-.042.572.672.426-.337.55-.624.072.158.626-.391.153-.1.643-.363-.11-.646-1.122-.547.922v-.807l-.658.015v.609l-.495.024.039.737-.8.227-.173.56-1.114.13.111.728.346.283-.3.387.419.012-.587.344.038.508.524-.029-.148.826.611.08-.35.8-.387.021-.115-.547-.9.27-.418-.614-.956.36.046.718-.167-.608-.556-.354-.563.5-.321-.337-1.637.42-.5-.411-.085-.886-.335.439-.494-.516-.3.734-.866-.72-.608.129-.181-.631-.556-.273-.262,1.193-.494.125.083.461.375.1-.1.543.715.582.03.739-.452.531.67,1.056v.435l-.459.367.378.01.031,1.048-.392.128-.456-.258-.015-.465-.447-.065-.072.613-1.032.288-.326-.589-.489.3-.481-.179-.656.331-.754-.031-.075,1.118-.888.47-.433-.024.086-.437h-.644l-.673-1.043-.776.319-.022-.221-1.219.008-.151.214.534.281-.042.382-.691.3.157,1.193-.913-.012-2.08.771-.027.558-.473.519.4.459-.631-.032-.086.43-.826.329-.3-1.125-.708.091-.274-.473-.066.776-.915.362-.18.7-.362-.15.04-.253-.48.05-.2.712-.5-.589.124.571-.433.118.207.261.413-.368-.048.6.565.094.05.716.351.086-.1.409-.246-.359-.234.158-.032.749.341.465-.2.324.258-.329.9.156.017.32,1.07.365.13.592-.359.57.043.825-.723-.322-.881.8.29.246.613-.3.451.224-1.04,1.925.261.671-.24.011-.256-.55-.393.546.594.109-.324.972-.964.474-.558-.026-.3-.614-.3.445-.978.49.04.545-.492.1.391.283h0l-1.3.63-.387-.091-.39-.458-.317-1.341-.834-.109-.225-.664-.431.824-2.028.185h0l-.42-.294.346-.115-1.116-2.186-1.068-.345-.354-1.362-.369-.253.162-.234-.424-1.766-.623-2.249-.276-.027.5-.572-.527.1-.011-.585-.645-1.024.018-.593.331-.138-.343-.481.306-.516-.236-.046-.144-2.292-.453-1.184.228-1.3-.309-.008.169-.356-.39-.212.582-.71-.427-.479-.564-2.136-.453-.452.435-.054.074.3.217-.359-.49-1.071-.53-.29.512-.472-.262-.039-.026-.89-.619-.7.413-.371-.549-.762-.173-.8.28-.306-.619-1.283-.166-1.237-.165.086-.446-.745.11-.562-.641-.99.173-.287-.424-.788.221-.881-.751-.354.059-.855.387.019.224.532,1.161.276-.177.493.431.5-.1-1.114-.342-.548-.818-.043-.556-.878-.49-.26.162-.443-.409-1.206.438-.97-.973-2.172.188-1.512.623.172.324-.5.395.534.162-.277.081-.792-.825.211-.247-.718.66-.09-.243-.534.217-.386.313.16.7-.513-.39-.034-.132-.808-.4.012-.1.43-.611.511-.626-.164-.232,1.1-.49.468.21-.71-.42-.128.3-1.074.158.121.155-.293-.295-.047.144-.723-.62-1.015-.026-1.587.276-.735-.549-.629-.173-1.225.471-.4.081-.49-.284.306-.619-.485-.074-.807.335-.027-.674-2.771-.482-.64.015-.267.39-.1-.225-.954.689-.558-.114-1.387.4-.935h0l.852.163,0-.333.442.054-.009-.582.529-.567,1.272.191h0l.215.581-.179.573.212.248.374-.307-.1.347.565.6.1-.444,1.046.209.615.444.4-.977h0l.965-.389.293-.816.553.123.2-.211.089.293.738-.192-.086-2.066-.426-.54.509-.343.942-1.785-.251-.043-.013-.572-.537-.163-.5-.674.494-.316.182-.647.383-.1.21.905.53-.29.914.533.391.81.45.24.4-.227.626.156,1.2-.687.094-.729-.3-.38.543-.007.291-.5.468.087.38-.267-.059-1.39-.664-1.422.151-.612-1.194-.183-.115-.378-.436.173L107.93,378l.138-.834-1.229.081-.95-.848.33-.117.308.619.6-.278.734.2.066-.411,1.073-.068.127-1.362.794.072.75-.5.058-1.5.21.147,1.059-.391.247-.891.554.484.264-.222,1.243.064.086-.294.274.239,1.035-.469.012-.649-.3-.343-.472.423-.425-.207-.4.269-.291-.4h-1.546l-2.772.91-.482-1.464-.489-.382,1.3-.286.143-.789-.864-.895.182-.4-.457-.467,4.451-1.869Z" transform="translate(-93.455 -364.133)"/>
</svg>
