<svg xmlns="http://www.w3.org/2000/svg" width="23.468" height="27.15" viewBox="0 0 23.468 27.15">
  <path id="IN-MN" d="M525.542,285.644l.037.445.452.05-.076.462.658-.094.707.712,1.125-2.345h.335l1.206-1.53-.065-.492-.508-.013.065-.594,1.609-.415.972.174.6-.217.056-.365.946.536.081.4.618.133.284-.465.461.042.265.769.954-.169.355.253,1.417-.709.129-.738.583-.426.416.068.9-1.189.3.094-.26.687.254.013-.523.855.022,1.077,1,.693.655.087h0l-.114.641-.565.425-.608,2.522,2.126,1.163-.046,1.634-.518.689.211.525-1.077,1.466-.357,1.761-.795.082-.259,1.23-.876.831-.476,1.2-.347.08.007.974-.512.313.239.3-.756.591.022.677L536,302.349l-.231,1.8-.655,1.549-.334.039-.124,1.2-.515.146-.352-.739-1.887-.824-.621-.1-1.208.4-.783-1.158-1.808-.069-.227.65-.53-.292-.643.617-.613-.389-.709-1.531-.817-.269-.263.109.045.535h0l-.653.027-.437.4.15-.53-.246-.365-.321.019-.094.495-.622-.072-.291-.482-.623.626-.284-.843-.342.179-1.025-.352.609-1.387-.187-1.027.466-.917-.29-.05.037-.637-.316-.186h0l.513-.116-.045-1.253.49-.936-.154-.2.609-.128-.419-.185.389-1.157-.383-.512.416-.462.034-.993.171-.147.4.44.589-.315,0-.662.423-.3.321-.608-.176-.294.3-.183-.18-.989.257-.453.483.024.413-.7.7-2.2Z" transform="translate(-518.941 -279.926)"/>
</svg>
