<svg xmlns="http://www.w3.org/2000/svg" width="116.367" height="84.39" viewBox="0 0 116.367 84.39">
  <path id="IN-MP" d="M177.805,252.965l.677.225.281-.642.919-.154.509.737.479-.11.33.51,1.526.6,1.236-.172.747-.461.1.311.24-.2.336.417.6-.014.71.905.518-.13.586.247-.136.507.733-.326.165,1.1-.345.541.155-.123.088.466.3-.01.535.718-.165.7,1.039.167-.126.41-.4-.01-.133.818.756.263-.24.146.145.283-.435.061-.136.586-.217-.225-.4.306.266.506-.486-.02-.073.545-.5.029.309.6-.77.234.8.849-.781.663-.2,1.3-.705.5.084.67-.478.144.2.906-.672-.457-.165.176.31.044-.023.234-.978.742.856,1.1-.081.736-1.7.449-.377.419-.53-.345-.364.365-1.259-.264-.412.446-.343-.176-.274.456.16.814-.575.43-.4-.1-.229.792-.461.386.475.56-.309.378.492.192.125.763.573.416-.165.332.81.384-.373.229.326.363-.631-.026-.9.613,0,1.309-2.151,1.726-.021.361.6.645.151.962.638,1.174-.127,1.592-.52.517.662.681-.036.421,1.248.9-.464.819.712.788.731-.322.936-1.4.969.538,1.2,1.633.395.154.442-.282.181.212.191-.28.417,1.141.29-.438.867-.186.383-1.14.784-.764.233-1.28-1.006-.372.07-.5.224.238.473-.182-1.123-2.085-1.391.681-.364-.174-.125-.8.429-.646-.1-1.329.212-.293-.214-.679-1.274-.6-.2-.613-.419-.3.264-1.417-.594-.534-.379-2.361-.954-.518-.566.342-.354-.266.176-.228.351.164.333-.453.107.29.329-.036.217-.294-.217-.536.677.163-.2-.644.361.053.2-.367.333.156.32-.552.438-.055.207.278-.428.368-.167-.239.018.472.678.136.061.379.673-.08-.282-.8.926-.26-.767-.05-.4-.433.094-.55.328.361.973.154.21.167-.423.119.271.2.3-.511-.383-.631.632-.211-.022-.481.478-.034.086.266.184-.271.148.421-.338.153.256.6-.43.488.343.273.411-.155.244.925-.662.356-.48-.346.513-.027.241-.339-.989.185-.491.522.076.291-.684.258-.115.253.377-.033-.08.424.479.614.461-1.695.678.188.335-.268.228.951-.39.331-.425-.172-.224.425-.21-.152-.053,1.319,1.014-.8.63.356-.015-.555-.312-.164.449-.471.094.423.588.331-.423.575-.037.637.283.073.547-.8.479.417-.167.3.283.483.665-.1-.166-.362.24-.129.286.548.425-.038.068-.358-.393-.111.291-.185.309.113.012.458.572-.165.15-.273-.474-.668-.069-.745.783.695.191-.2-.237-.23.146-.63-.4.16-.3-.417-.376.277.01-.571.459-.441.679.105-.2.573.294.421.192-.425.635.516.558-.363.438.2-.414.013-.426.652.208.184-.439.056-.342.566.2.834.212-.376.211.463.495-.4-.1.559.389.2,1-1.392.321.444.174-.109-.065.342,1.96-.183,1.463.666-.11-.512.324-.248-.331-1.32.733-.246.146.345.387-.566.719.048.318-1.1.83-.186.53.256.857-.665.08-.479.681.166.141-.35.728.61-.089,1.447.981.755.279-.08.328,1.011-.961.43-1.119,1.682.659.4.56-.336.309.239-.217-.7.994-.357.392.548.318-.009.077-.649-.316-.186.442.018.45.49.253-.349.588.282-.162-1.219.5.469-.412.277.729.44.3-.108-.076.405.712-.259.646.149v-.331l-.673-.2V278.3l-.342-.209,1.326-.137.373.53.113-1.21.554-.043.357.518-.53.538.075.772-.584.467.285.6-.772.387.162.4.434.145.662-.21h0l.2.136-.036-.251h0l.524-.231.244.686.817-.1-.1-.32.887.03.743.882.385-.974.5.348-.193.081.374-.078-.144-.9.795-1.067-.211-.545.31-.913.494.026.11.73-.022-.694.225-.131.813.725.517-.154.108.34-.5.039,1.1.482.317-.468-.461-.445.3-.223.388.128-.2-.637.754-.128.2.4.494.126-.356.342.12.531L223,278.3l.2.285-.506.344.14.28.72-.278.308.527.67-.072.753.566.533-.135.753.389.164-.246.18,1.154-.207.562.832.907.606-.294,1.424.856h.626l.485-.472-.225.291.4.339-.267-.012-.219.626.542.16-.189-.342.309,0-.025-.224.231.185.07-.313-.182,1.552.307.052.137-.3.438.24-.033.823.475-.147,1.053.379-.1-1.258.407-.328.219.414.923-.006.143.386,1.707-.709.5.361-.01.46.9-.02-.035.67h.481l.059.688-.726.163-.444-.215.041.626.278.2-.39,1.673.708.177.048,1.175-.189.821-.3.188-.087,1.228-.657-.283-.179.345.677.786.767.042-.322.822.734.236.139.612h0l-.791.593-1.215.209-.06.746-.876.489-.777-.018.227.435-.375.144-.746-.395-1.748.112-.968-.265-.387.218-.357-.364.061-.306-.551.48-1.552-.009-.592-.619-.663.149-.454-.292-.843.707-.932.181-.843-.415.052-.269-.814-.968-.677.271-.16.774.426.333.121.867.456.249.176.473-.586.886-.4-.01-.14.884-.437.165.1.488.38.064.018.632.281.239.349-.6.511.119.57-.639.91.313.3.5,1.183-.3.793,1.724.529-.15-.02.515.414.146.7-.287.164.605.357-.087.637.527.048.591-.624.823.114,1.242-.466.549-.647-.188-.571.53-1.141.033-.26.532.289,1.21-1.064.608-.048.348-1.154.251-.113.565.31.975-.5.578.214.906-.295.224-.233-.405-.211.382-.67.254-.1.907-.333.067-.1.364-1.283-.014-.52.672-.554-.01.132.382-.313-.171-.369.546-.236-.921-.741-.273-.252.612-.378-.255-.757.688-.508-.553-.93.705.051,2.107-.387.684-.866.252-.048,1.385-.6.259.436.255-.061.508-.473.045-.171-.784-.527-.088-.863,2.268-.362.059.24.3-.065,1.873-.272.82-.9-.15-.324.66-.123,1.787.278,1.639-.977,2.016h0l-.841.086-1.428-1.04-.493-.067-.105.432-.491-.063-.19-.441.3-.439-.54-1.182L205,329.012l-.956-.2-.972.388-.681.749-.929.284-.758-.316-.272.462-.779-.093L198,329.264l-1.13.649-1.47.185-.637-1.857-.966-.247-.279.241-.606-.062-1.6-.644-.117,1.045-.956-.139-.792.877-1.042-.033-.2-.246-1.077.377.194.458-.31.078.48.588-.117.376-.478-.188-.212.223-1.263-.059-.165.313-.342-.381-.354.417-1.789-.317-.243-.412-.769-.182-1.041.382-.1-1.432-.571-.239-.246.577-.321-.176-.433.273-.5-.327.041.338-1.171.171-.154.86-3.059,1.593-.755.132-1.094-.493-.079.307-.577.072-.213.3-.38.08-.188-.542-.317.365-.215-.312-.656,0,.043.379-.27.036-1.292-.189-.235-1.13-.411-.229-.283-.859.538-.336,1.452.383.532-.186-.479-.284,0-.921-.387-1.057-.885-1.007-2.51.124-.041.551-.777.091-.228.342-.476-.476-.182.2-1.133-.135-2.271,1.745-.649-.2-.247.313-.507-.064-.1.82-.33.25.383.468-.1.334-2.118,1.875.485.751-.5,1.279-1.8-.049-.46,1.157-1.013.534-1.255.029-.26-.275-1.187.142-.778-1.139.7-.087.078-.25-.376-.711.2-.3-.8-1.637-.614.3-1.109-.589-1.07-.08-2.848.275-.856-.209-.806.321-1.058-.31-.928.16-.491-.289-.789.2-.03-.376-1.058.068-1.389-.7L136,329.8l-2.067-.933-1.47.281-3.079-1.021-.087-.52-.546-.119-.1-1.151.316-1.454-.452-.655-.594-.239-.035-.794-.765.091-.447.587-.7.168-.164.454-1.182.146-.724-.407h0l.1-.464-.745-.416,1.1-1.02-.346-.271-.324.111-.1-1.652-.623-.13.21-.312-.43-.6.17-1.07.53-.164.3.565.753.149.208-.656.269.131.411-.6.48.08-.533-.555-.655-.057-.183-.585-.054.485-.34.172-.223-.353-.282.516-.261-.676-.335.032.1-.617-.561.255-.11-.253.426-.612,1.148.481,1.486-1.833,1.576.018.25-1.256,1.006-1.843-.364-.944-.677.356-.509-.486-.271-.456.387-.221-.637-1.194h0l.907-.712,1.606.335.444-.626.827-.184.81-.818.615.1.4-.252v-.3l-.673.14.359-.282-.278-.429-.728.18-.987-.6-.245.266-.466-.669.7-.709.043-.649.523-.562.548-.044.61-.569.437.047.681-.689.238.2.564-.292.8-1,.447-.108-.426-.761.437-.755-.463-2.019.208-.9.95-1.367-1.483-2.676.328-.294-.153-.408-.326-.277-1.551-.029.409-.5.044-.8.943-1.4-.528.079-.019-.426-.5.114-.889-.4.594-.638-.117-.617.559-.2-.088-.38.446-.511-.554-.235.319-1.579,1.241,2.052.663-.074.256-.591.5-.112-.086-.647h.356l-.175-.634-1.2.13-.775-.379-.129.3.093-.887-.428-1.1.3-.671.277.547.232-.187.375.313.094.536,1.635.477.172-.333.829-.1-.042-1.118.646-.386-.07-.789,2.473.039.079.259-.432.273.246.636-.314.919-.5-1.118-.127.217.355.568-.419.49.661.3.2-.257,1.3-.084-.094.423-1.477.741-.355-.588-.684-.083.3-.535-.352.083-.2-.292-.091.377.671.69-.6.4-.278.612.417.668.667-.151,2.449.577,1.725-.43.417.5,1.941-1.117,1.049.511-.154.854.287.269-.274.581.136.259.333-.252.715.606-.143.282.245.274-.451.347.275.251-.037.53-.819.543-.745-.821-.563.683.087.278-.376.059.146.836.361.543.611.105.208.832-.708.372-.4,1.184.435.009.177.425.613-.023-.027.523-.719.195-.233.933-.817.42-.414-.938-.457.49-.675.116-.224-.448-.7-.379-.658.99-.11.871,1.381.884.207.268-.267.226.351.372.919-.023.433.6.039-.852.4,0,.15-.569-.411-.275.056-.391.629.2.362.525.227-.3.881-.309.238.16,1.289-.7-.207-1.344,1.151-.732,1.164-.286-.177-1.472.44-.69-.152-.606.563-.674.275.3-.153.381.278.991.891.016.585-.553,1.161.673.122-.285.393.148.222-.213.815.99.641-.252-.185-.293.419-.424-.124-.286.344.108.031-.3,1.016-.324.127.529-.376.807.357.32.715-.01.611.753.728-.271.583.114.215-.839.376-.256-.932-.944-.451-.986.148-1.9-.487-.953.685-.219.177.352.442-.267.023.816.672.392.48-.249.4-.743.243.033.191-.634-.07-1.06-.435-1-.726-.3-.269-.494-.561.273-.824-.052-.606-1.017.4-.3,1.258-.14.3-.338-.465-.22.093-.423-.393-.043-.489-1.328,1.848-1.021,1.108.322.494-.163.731-.655,1.229-.081.538.519,1.269-.432-.1-1.1.362-.072-.154-.488-.753-.668.294-.712-.47-.079.331-1.286-.744-.345-.3.189-.832.737-.2.912-1.72-.416-.681.568-.868.057-.224.32-.645-.691-.666-.119-.967.269-.044-.353-1.137-.137-1.042-.64-.18-.625-.327-.161-.584-1.288-.126-2.107-.438-.327.061-.34.64-.234-.017-.945.841-1.125.449.049.259-.561,1.157.093.385-.289-.086-.29.668-.167.45-.862-.131-.271.761-.943,1.3-.578.646-.734.755-.133.429-.7,1.049.008L165.6,261l.593-.914,1.3-.115-.063-.622,1.262-.119,1.921-1.387.613.061.4-.609.911-.142.1-.67.783-.3.2-.624.707-.042.588-.559,1.241.292.045-.82.357-.246-.215-.631,1.012.082-.2-.529Z" transform="translate(-122.426 -252.394)"/>
</svg>
