<svg xmlns="http://www.w3.org/2000/svg" width="25.376" height="27.254" viewBox="0 0 25.376 27.254">
  <path id="IN-NL" d="M551.1,248.427l.509,2.269-.655.387.32.211.086.779.395.164-.381.774.284.73h0l-1.1.993,0,.575-1.158,1.772.517.469-.018.426.411.2-.193,2.211.283.363-.325.671.034.876.864.435-1.051,1.659-.925.489-.2.385-.08.546.492,1.615-1.525,1.381-.238.853-.407.266.212.383-.737.1-.489.961-1.726.525h0l-.655-.087-1-.693-.022-1.077.523-.855-.254-.013.26-.687-.3-.094-.9,1.189-.416-.068-.583.426-.129.738-1.417.709-.355-.253-.954.169-.265-.769-.461-.042-.284.465-.618-.133-.081-.4-.946-.536-.056.365-.6.217-.972-.174-1.609.415-.065.594.508.013.065.492-1.206,1.53h-.335l-1.125,2.345-.707-.712-.658.094.076-.462-.452-.05-.037-.445h0l-.293-.513.349-.525-.217-.806-.875-.433-.851-1.217,1.27-1.247.96-.37.973-1.539,1.754-1.3-.236-.9.851-.4.281-.438.336.832-.246.936.212.472.617-.712.536.246.44-.617.843-.473-.326-1.3.481-.966.182-1.489,1.369-2.269.9-.265.146-1.726,1.2-1.46.173-.079.055,1.238.3.264.459-.679.641-.352.112-1.219.724-.313.073-.511,1.023-.612.393.3.391-.718.321.308.773-.208,1.533-1.094L547,250.075l.556-.293.764.5.473-.107,1.176-.619Z" transform="translate(-526.38 -248.427)"/>
</svg>
