<svg xmlns="http://www.w3.org/2000/svg" width="80.87" height="67.408" viewBox="0 0 80.87 67.408">
  <path id="IN-OR" d="M349.057,377.579l1.609.01.125.785-.9.073h0l-1.179.85-.219-.305h0l-.439.094.31.38-.6-.091.642-1.607.644-.189Zm-38.043-25,1.757.718L313,354.3l.553.419.7-.027.566.523,1.815-.165.289-.435.395-.066-.013-.32.663-.2,2.881.076.118-.391.73-.07.329.294.584-.243.229.363.71-.475.1.175,1.431-.569.153,1.866.251.108-.066.387.346,0,.006.341-.583.263-.62,2.3-.582.391.3.068.552-.441.684.161.31.473.487-.057.2.319.022-.286.508.359.268.615.917-1.53.3-.257.466.077.067-.5.413-.058,1.926,1.033.683.174.71-.227.489.6,1.6-.891.381.486-.568,0-.36,1.254,1.919.331.091-.547.4-.2.767-1.288.348-1.094-.755-.834.975-.9-.462-.054.159-.28-.365-.126.376-.53-.166-.708-.732-.455.209-.63.7-.3.219-.619.913,1.132,2.288.566.967,1.438,1.07.63.067-.313.816-.253.431.614.611.006.165.331.725.193.073.4.95.257h0L347,358l.993-.15.553.844,1.661.169.8.6.222.747-.483,1.171.428.6.855.071-.015-.681.859-.324.121-.614.893.273.366,2.012,1.19.4.239.367.975-.012-.01.456.37.313-.162.89.31.518h0l-1.353.9-2.375-.042-1.154.573-1.761,1.392-1.179,1.348-.925,1.746.011.792,1.946,4.5-.167.529-1.009-.181-.712.367-.718,1.8.622.081-.318-.369.424-.1h0l.219.305,1.179-.85h0l.877.219.6-.2-3.458,2.465-.729,1.856.667.188.015.65-1.338,1.168-1.677.755L342.97,388l-.3.837-.62-.13-.686-1.055-.566.11-.148.371.774.036.919,1-9.293,3.03-3.688,1.876-3.253,2.283-1,1.123-2.017,1.476-1.179,1.212-.833,1.436-.556-.345h0l-.334-.333.11-.444-.492-.079-.051.49-.92-.028.371.666.456-.064,0,.4-.554-.036-.332.588-.286-.732-1.017.62-.236.558-.75-.459.338.659-.332.405.183.342-.419.387-.432-.142.3.26-.48-.077.267.225-.121.227-.35-.22-.05,1.049-2.4.228-.376.386-.546.05-.726-.807-1.158.079-.923-.306-1.1-2.667-.63.421.537.993-.454-.146-.531-.942.231-.375-.347-.065-.978-1.928-.385.468.134.452-.34.539-.429-.338-.2.962-.477-.08-.025-.221.267.028-.11-.562-.156.164-.271-.347-.184.114.246.681-.044.294-.346.01.093.758-.619-.71-.829-.193-.544.283.314,1.022.222-.564.457.474-.445-.05.858.948-.2.4-.5-.018-.035.448-1.018.147-.178.458-.62-.123-.19.7-.044-.37-.912-.424-1.087,1.659-.523.212-.047.709.61.027-.359.26.074.28.754.14-.981,1.31.293.357.276-.142-.065.753-.481-.128-1.121.463-.541-.217-.1-.642-.527.042-.607-.414-.3.276.226.347-.348.893-1.436.623-.423.809-.612-.578-.057-.514.462-.555-.143-.311-.867-.292.246-.673-.313.047-.093-.975-.318.031-.333-.492-1.5,1.778.307.571-.663.727.777.149-.281.453-.464.11-.054.705-.354.281.783.783-.1.2-.321-.242-.048,1.425-.322.037-.1-.338-.411.192,0,.864-.339.093-.853-.431-.226-.462-1.8-.2-.967.919-2,.782-.567.6h0l-.731.45-.2-.331-.335.11-.688.859-.563-.174-1.161.349-.289-.305-.988.253h0l.118-1.1.576.128.532-1.313-.046-.817.461-.892.185-.907-.236-.37.307-1.053.868-.591.866-.137-.008-.395,1.151-.085.228-.922,1.271-1.425.516-.215.156-.5.508.072.1-.386-.878-.481-.04-.412.823.3.269-.866.876-.4.595.094.038-.613.632-.026.425-.467.154-1.465.886-.213-.192-1.463-.411-.642.239-.426-.164-.379-.53-.126.252-.455-.359-1.5.417-.763-.561-.594.339-.057.221-.728-.845-.089-.361-1.211-.924.114.315-.519-.113-2.331.3-1.117-1.057-.179-.262-.833-1.469-.753-.163-.594.388-1.215.992-.937,1.1,1.3.444-.564,1.6,1.016.692-.283,1.443,2.375.655-.732.71-.3,2,.544-.3.6.183.725.8-.767.756-.08.2-.562-.225-.318.093-1.37-1-.139-.443.2-2.753-1.046-.158-1.2.46-.816-.113-.868.321-.275-.471-.744.47-1.279-.253-.674-.291.295-.1-.813-.749-.625.586-1-.439-1.909.152-1.782.727.305.187.511.577.038.353-1.132.892-.541.92-1.353-.172-.492.473-.437-.12-.678,1.543-.147.485.292.314-.275.886.135,1.018-.377,1.122.806,1.051.254.932-.491.375-1.776.746-.363-.272-.381.211-.894,1.39.5.369-.121-.118-.728-.577-.636-.207-.735.611-1.674.8-.522.153.63.422-.291-.859-.706.854-.952-.224-.589.315-.455.6.295-.07-.544.706-.168-.172-.4.384-.558-.625-.306-.241-.449.042-1.317.822-.146-.546-.55,1.149-1.733.627-.3.793.038,1.436-1.45,1.9-.343.5-1.386-.869-.548.053-.285.292.017Z" transform="translate(-276.297 -351.961)"/>
</svg>
