<svg xmlns="http://www.w3.org/2000/svg" width="40.536" height="47.046" viewBox="0 0 40.536 47.046">
  <path id="IN-PB" d="M145.55,114.525l-.286,1.078,1.077,1.436-1.172.59-1.426,1.661-1.51.615-.031.778.552.322-1.1,1.3.262.246.674-.175.537.246,1.253,1.053,1.462.7,1.021,2.119-.658-.042,1.073,2.668,2,3.628-.245.814.414.317.087.54,1.635-.194v-.358l.54-.168-.276-.769.575-.206.053-.4.214.782.916,1.326-.227.361.473-.426.29.573.341-.151.051.323.253-.336-.029.445.471-.386.412.455-.279.538.6-.167.125.22-.6.469-.015.857.483.271-.355.88.147.765,1.36.633.76.884h0l-.011.463.779.681.253.62-.247.444h0l-.465-.042.04-.3-.356.135-.132-.341-.911.6.473.992.9.411.338-.255h0l.2.465.364-.363-.048.6.727.632-.377.916.468.345-.417.516v.671l.511.809-.624.446v-.409l-.634-.735-.318.34-.671-.416-.765.7.148.439.361.085-.31.412-.538.107-.859.852-.825.087-.2.582.682-.452.372.393-.1.243.459.142L155.554,153l-.34.391-.322.079-.29-.363-.713.34-.136-.315-.514-.055-.556-1.562-.387.293.274.393-.155.464-.85-.334.306.332-.345.3-.952-.166-.627-.613.107.367h-.283l.854.467-.751,1.024.226.166-.325.165.172,1.11-.5.237.243.614.761.3-1.666,1.113-.514-.144-.557.905-.24-.144-.7.378-1.135-.241-.667-1-.437.08-.324-.28-.871.257-.112.818-.956-.276-.161.41-.59.058-.164-.356-.592.089-.895-.732L139,159.045l-.576.267.2.529-.434-.175-.493.927.317.331-.112.312-.963.335-.03-.923-.636-.359-.205-.5.5-.383-.021-.573.494-.411-.645-1.327-.357.289-.018.594-.847-.393.224-.3-.343-.35.3-.365-.258-.643-.256.553-1,.347-.984-1.422-.4.154-.05-.449-.423.142-.643-.514-1.024.472-.44-.114-.675.718.094.273-1.7-.594h0l-8.328-.41.049-1.179.953-1.142-.005-1.136h0l-.112-1.026-1.149-1.646.426-.743.324-.064.1-.648.363.082.279-.663.667-.551.579.106-.129-.394.328-.316-.022-.578.237.11.125-.409.432-.007,1.077-1.345.659-.164-.26-.585.467-.228-.155-.26.4-.743.622.027.034-.614.671-.319.722-.929.9-.427.269-1.148.851.318.659-.225.295-.526-.227-.546-.612.145-.129-.244-.386.057-.092.592-.445.149-.113-.56-.515-.261.087-2.08.54-.407,1.2-2.516-.207-.417-.8-.234.5-.5-.039-.527-1.109-2.422.011-.349.447-.126.061-1.183.583-.9.3.073.494-.578.575-.1.079-.518.355.322.156-.233.815-.045.122-.663.62-.415.1-.418.71-.237,1.047.579,1.476-.848.639.233.41-.764.581.463,1.644-2.318.051-.536-.592-1.079h0l1.229.206.759-.248-.06.354.3.116.146.538.371-1.147,2.419-1.091.456-.917.774-.169Z" transform="translate(-119.005 -114.525)"/>
</svg>
