<svg xmlns="http://www.w3.org/2000/svg" width="35.218" height="81.23" viewBox="0 0 35.218 81.23">
  <path id="IN-PY" d="M242.6,562.649l-.5,0-.058-.721-1.089-.406-.308-.735.556.115-.181-.59.683.267.239-.255.7.138h0l-.044,2.193Zm-.674-13.467-.247-.433-.393.214-.031-.49-.61.3-.594-.372.316-.53.432.4.126-.225-.25-.5-.369-.107.277-.481-.725-.193.459-.448.355.569.383-.23.238.2-.489.163.281.817.809-.765.527.312h0l-.495,1.794Zm32.593-66.908-1.1-.486.571-.368.037.463.8-.062.172-.281.077.4h0v0h0l-.67.062.115.269Z" transform="translate(-239.858 -481.419)"/>
</svg>
