<svg xmlns="http://www.w3.org/2000/svg" width="116.439" height="106.155" viewBox="0 0 116.439 106.155">
  <path id="IN-RJ" d="M86.616,173.072l.005,1.136-.953,1.142-.049,1.179,8.328.41h0l-.186.546.38.079.264.567-1.171,1.2.089.667.714.041.807-.416.249.239-.516,2.9.635.556-.471,1.046-.479-.121-.182.26.029.375.352.1.516.862-.013.516.611-.044.111-.628,1.412.25,1.121-.733,1.141.6.344,1.261.5.155.648-.235.506.834.4.087.952-.638.577.513,1.27-.891-.057.876.4.149.169-.433.5-.112.066,1.113-.524.7.465.216-.207.884.658.085.059.733,1.013.087.072.538-.656.747.614,1.361-.2.742.4.567.355,2.056.827.188.146.851,1.978,1.337-.105.756,1.577.211.44.374.428.761.85.567-.1.592.555.264-.105.322.634.719-.369.161.017-.351-.512-.075-1.215,1.194.61.2.033.444.412-.574.265.224-.4.293.063.268-.532.087.272.313-.452.138.4.246-.315.718-.327-.213-.2.271.07.245.644.113-.19.67,1.149.253.509-.31,1.125.917.668-.5-.4-.345.073-.528-.427-.241.173-.869-.325-.394.781-.492-.485-.416.979-.176.409.181.2.5.585-.152.177-.575-.758-.4.772-.413-1.015-.758.754.021.542.592,1.25-.252.356.726-.489-.08-.163.282.651.428-.582.227,1.124.159,0,1.032.806-.592.81-.139-.117-1.171,1.86-.912.131-.82.652-.227,1.476,1.247-.572,2.2.006,1.1.262.087-.162,1.275-.3.024-.261,1.529.4.452-.446.022.288.613.419-.248.482.269.305-1.27,1.137.049-.158-.38-.619-.216.234-.63,1.17.655.331-.231-.011-.357.4.1-.159.357.333-.557.5.543.408-.455.176.143h0l.376.279L130.8,210.7l.516.338.077.649-.413.62.516.274-.262.335.063.616.627.2.186.58.44.236-.191.549.222.393.867.267,1.025.818.525-.25-.3.641.7.922-.062.323.444.253-.244.37-.656.106-.19.678-1.225.417.3.417.587-.161-.11.614.928.319.61-.538.4.765h.248l.055-.465.379.131-.248.516-1.16.214-3,1.592.222.713-.141.73.473.008-.212.34.6-.3-.164-.31.226-.9.3.386,1.112-.16,1.476-.723.041-.523.457-.318,1.813.719.13-.523.558.369.859-.162.2.742.342-.208-.074-.605.786.156.131-.719,1.246.214.141-.225.614.454-.473.609-.47-.089.248.783h0l-.648.135.2.529-1.012-.082.215.631-.357.246-.045.82-1.241-.292-.588.559-.707.042-.2.624-.783.3-.1.67-.911.142-.4.609-.613-.061-1.921,1.387-1.262.119.063.622-1.3.115-.593.914-1.152.862-1.049-.008-.429.7-.755.133-.646.734-1.3.578-.761.943.131.271-.45.862-.668.167.086.29-.385.289-1.157-.093-.259.561-.449-.049-.841,1.125.017.945-.64.234-.061.34.438.327.126,2.107.584,1.288.327.161.18.625,1.042.64,1.137.137.044.353.967-.269.666.119.645.691.224-.32.868-.057.681-.568,1.72.416.2-.912.832-.737.3-.189.744.345-.331,1.286.47.079-.294.712.753.668.154.488-.362.072.1,1.1-1.269.432-.538-.519-1.229.081-.731.655-.494.163-1.108-.322-1.848,1.021.489,1.328.393.043-.093.423.465.22-.3.338-1.258.14-.4.3.606,1.017.824.052.561-.273.269.494.726.3.435,1,.07,1.06-.191.634-.243-.033-.4.743-.48.249-.672-.392-.023-.816-.442.267-.177-.352-.685.219.487.953-.148,1.9.451.986.932.944-.376.256-.215.839-.583-.114-.728.271-.611-.753-.715.01-.357-.32.376-.807-.127-.529-1.016.324-.031.3-.344-.108.124.286-.419.425.185.293-.641.251-.815-.99-.222.213-.393-.148-.122.285-1.161-.673-.585.553-.891-.016-.278-.991.153-.381-.275-.3-.563.674.152.606-.44.69.177,1.472-1.164.286-1.151.732.207,1.344-1.289.7-.238-.16-.881.309-.227.3-.362-.525-.629-.2-.056.391.411.275-.15.569-.4,0-.039.852-.433-.6-.919.023-.351-.372.267-.226-.207-.268-1.381-.884.11-.871.658-.989.7.379.224.448.675-.116.457-.49.414.938.817-.42.233-.933.719-.195.027-.523-.613.023-.177-.425-.435-.009.4-1.184.708-.372-.208-.832-.611-.105-.361-.543-.146-.836.376-.059-.087-.278.563-.683.745.821.819-.543.037-.53-.275-.251.451-.347-.245-.274.143-.282-.715-.606-.333.252-.136-.259.274-.581-.287-.269.154-.854-1.049-.511-1.941,1.117-.417-.5-1.725.43-2.449-.577-.667.151-.417-.668.278-.612.6-.4-.671-.69.091-.377.2.292.352-.083-.3.535.684.083.355.588,1.477-.741.094-.423-1.3.084-.2.257-.661-.3.419-.49-.355-.568.127-.217.5,1.118.314-.919-.246-.636.432-.273-.079-.259-2.473-.039.07.789-.646.386.042,1.118-.829.1-.172.333-1.635-.478-.094-.536-.375-.313-.232.187-.277-.547-.3.671.428,1.1-.093.887.129-.3.775.379,1.2-.13.175.634h-.356l.086.647-.5.112-.256.591-.663.074-1.241-2.052-.319,1.579.554.235-.446.511.088.38-.559.2.117.617-.594.638.889.4.5-.114.019.426.528-.079-.943,1.4-.044.8-.409.5,1.55.029.326.277.153.408-.328.294,1.483,2.676-.95,1.367-.208.9.463,2.019-.437.755.426.761-.447.108-.8,1-.564.292-.238-.2-.681.689-.437-.047-.61.569-.548.044-.523.562-.043.649-.7.709.466.669.245-.266.987.6.728-.18.278.429-.359.282.673-.14v.3l-.4.252-.615-.1-.81.818-.827.184-.444.626-1.606-.335-.907.712h0l-.534-.467.075-.342-.559-1-.511-.055-.326.575-.743-.384.09-1.31-.426-.381-.759,0-.157-.525-.556-.077-.262-.572-.315.052-.112.465-.592.063-.824-1.587-.651.176-.243-.347-.512.665-.291-.625-.676.222-.271-.173.34-.749-.283-.637.314-1.085-1.108-.47-.846.559-.066-1.256-.388-.082-.78-1.021-.591.184-.176-.3-.008-1.081.83-1.006-.26-.864.115-.881-.585-.538.051-.585-.508.19-.035.6-.55.674-.6.243-.622-.593.33-.681-1.454-.588-.418-.675.826-1.791.473.093.163-.613.24.137.271-.444-.271-.156-.544.361-1.127-.639.31-.465-.185-1-.575.431-.508-.25-.165.172-.491,1.268.373.289-.9.549-.74-.576-1.8.066-.518-.846.05-.554-1.442-.223-.582-.5-.584.826.1.59-.571.04-.371-.779.077-.638h0l-.689.079-.432-.784h0l-.833.206-.585-.61.374-.29.62.192.368-.457-.513.135-1.128-.351-.257.3-.6-.028-1.068-.559,0-.648-.435-.128L59.795,256.5l-.319-.594-.579-.114-.24,1.038-.618-.258-.169-.712-1.823.545-.6-.547-1.7-.047-1.4.763-.425-.461-.706.666-2.528-1.068h0L46.548,252l-.679-3.073-1.7-1.776-.295-.824-.929-1.005.181-1.884-.29-2.651-.649-.139-1.071.441-1.812.191-1.592-.553-2.434-3.589L35.1,235.22l1.2-2.536.15-3.586-.215-.949-1.346-.722-2.479.271-.848-.165-1.24-.917-2.842-1.408-.317-.86.391-3.14.861-2.219,3.765-3.549.985-1.488,1.061-.808,1.214-3.164.652-1.01,2.775-2.621,1.559-.388,1.046.214,1.452,1.588.084,1.132,1.051,1.83,1.678.282,5.156-2.156,1.814-.359,3.3-.048,3.171-1.33.476-2.553.83-1.207,2.5-2.28,1.559-4.642,1.1-1.5,4.332-2.6,3.057-1.4L73.8,189.1l1.183-1.55,2.415-4.7,1.592-5.834,2.915-1.3,2.335-.675Z" transform="translate(-27.159 -173.072)"/>
</svg>
