<svg xmlns="http://www.w3.org/2000/svg" width="12.009" height="15.721" viewBox="0 0 12.009 15.721">
  <path id="IN-SK" d="M423.458,223.165l.285.377,1.119.011,1.085.93.044,1.2.331.128.324.935-.417.673-.1,2.217-1.055,1.56.561,2.394,1.5,1.18-.308.769-1.3.409-.172.923-.484.562h0l-.361.145-.532-.623-.371.266-.5-.38-.8-.013-.507.158.122.419-1.3,1.023-1.435-.347-.257-.354-.954.132-.489-.246-.783.289-.674-.368-.144-.887-.769-.269h0l.692-1.746-.328-.526.066-.516.44-.317-.481-1.039,2.037-4.423-.321-.446.374-.257-.067-.244-.914-.421-.081-1.044.2-.19.658.3.545-.365.189.292,1.343-.617.591.172,1.237-1.016.741.1.206-.692.822-.284-.061-.391Z" transform="translate(-415.124 -222.706)"/>
</svg>
