<svg xmlns="http://www.w3.org/2000/svg" width="60.453" height="57.071" viewBox="0 0 60.453 57.071">
  <path id="IN-TG" d="M193.6,434.371l.225-.372-.629-.438.473-.96-.388-.133.786-.253-.518-.251.4-.285.326.134-.05-1.028.684-.072.116.356,1.047-.386-.048-1.7.328-.437.382.322.677-1.73,1.395-.208-.809-1.21-.545-.039.176-.575-.544.04.059-.462-.66.013-.132-.663.056-.47.471.151.072-.712.6.167-.226-.64.362-.635-.157-.228.276-.82.509-.169-.581-.237-.014-.253,1.168-.552,1.284.991.072.409.412-.183,1.165.26.359-1.343-.2-1.126,1.68-.629-.395-1.434.425-.192,0-.456-.547-.832.214-.375.789-.337.3-.952-.381-.821-.595-.146.337-.931.222.456.636.056.179.605,1.042.283.236.328.429-.4,1.026.059,1.5.716.907-.169.806.288.175,1.44.758-.161.7.261.154.9-.345.469.508-.144.338.312,1.121.169.994.949.6-.1-.214-.336.4-.5.1-1.208.809.316.125.347.726-.08,1.345,1.039.958-.719.131.4.6.229.553-1,1.334-.4.6.135.568.8L225.3,417.9l.435.894-.149,1.457-.552,1,.305.785-1.129.935.02.977.75-.179.244.361.06,2.286-.6.395.5.651,1.066.248,1.306,1.27.627-.278.409.286.172-.307.871-.287h0l.986,1.844,1.878-.584,1.979,1.531.24.652.638.508-.1.234.471.145-.136.365.376,1.129.577.673-.727.493.017.659.84.076.42-.949.5.375-.256.135.183.908,1.481-.5-.394,1.217,1.173,4.067.546.048,1.141-.926,1.253.565,1.737.077h0l.988-.253.288.305,1.161-.349.563.174.688-.859.335-.11.2.33.731-.45h0l.457.57-.138.287-2.729,1.477-.072.532-.9,1.366.275.281-.3.423-.106,1.261-1.032,1.214-.581.061-.625-.465-.763.982-1.135-.031-.249,1.247-1.542.26-.734.475-1.139-.3.106.769-.57-.005-.153,1.327-.35.35-1.416-.541-1.142.132.226-.453-1.28-.7-.85.419-.184.8-.477.462-.341-.109-.338-.733-.372.292.288.591-.4.6,1.718.739.047-.427,1.232.3.034.73-.289.068-.138.614.657.514-.547.345-1.412-.377-.051-.351-.7-.478-.355.536-.19-.608-.522-.223-.238-1.178-.52-.76-.808-.034-.254-.442-.64.828-1.167.278-.482.806-.237.611.549.15.485.539-.289.95-1.191,1.429-.744.059-.534-.838-.684.107-.47-.541-1.682.936-2,.437-.936.665-2.128.291-.541.738-.088,3.718-.558.312-1.932-.4-1.4.6-.266.282.067,1.061-.5-.069-.129-.594-.333-.05-.018.959-.815.882-.814-.042-1.282-1-.769.588-2.035-.34-1.186.716-.79-.03-.248,1.412-.769.4-.2.711h-.515l-.215.3-.609-.24-.364-.794-.456.592-1.514-.507-1.173.423-1.1-.294-.758.139-.7-.486-1.286-.126h0l.009-1.124-.257-.392.247-1.008-.3-.169-.041-.592.359-.9-.291-.014-.016-.352.181-.25.432.072.414-.485.336.15.017-.7-1.288-.53-1.1.181-.912-.236-.773-.322-.657-.9.754-.077.061-.247.924.1.169-.368.48-.1-.316-.656.964-.263.07-.869-.483.129-.217-.349.643-.215.024-.467-.576-.035.188-.952.445.055-.235-1.8.61-1.365-.488-1.344-1.361-.8.515-.655-.245-.153.983-.781-.272-.172.233-1.144.63.229.383-.251.1-.445-.336-.322.828-.032.009-.343.5.139,0-.358.391-.084.163-.38-.062.307.477.116.022-.456-1.245-.377-.025-.419-.549.186-.279-.331-.342.451-.154-.354-.664-.211.138-1.531,1.481-.778.052-.238-.815-.257.085-.263.2-.354.315.123.305-.765.318.033-.153-.527.416.075.1-.766.269.159.124-.32-.1-.333-.715-.237-.617-.61.727-.638-.037-.733-.444-.68.513-1.084Z" transform="translate(-189.423 -411.539)"/>
</svg>
