<svg xmlns="http://www.w3.org/2000/svg" width="54.636" height="73.848" viewBox="0 0 54.636 73.848">
  <path id="IN-TN" d="M209.235,608.25l.3.227-.273.392.151.277,1.511,1.394-1.872-1.192-1.116-.1-.136-.314.214-.2.626-.015.594-.474Zm-14.48-46.328.087.509-.5.461.989-.144.345.53,1.033.559,1.211-.076-.026-.61.41-.014.065-.546.227.023.072-.024.112.325.309-.08-.028-.794.483-.366.58-2.021.278,0-.438-.815.5-.532.566.185.115-.705.578.146,1.725-.556.078.906.567.015-.414-.225.278-.445.865-.119,1.187.85,1.109.093.48-1.054.39-.263V556.7l.651-.077.538.6.618-.448-.09-.454,1.008-.333-.029-.287L211,555.6l-.125-.178-.335.241.188-.944-.669-.3.72-.28,1.418.171.172.6.418.3,1.171-.5.063.716.3-.061-.1.361.452-.2.286.367.537-.389-.844-.665.435-.417.341.283.272-.3.675.012.986-.444.372-.52-.279-.412.408-.185-.018-.456.445-.112.139-.386.4.045-.044-.237-.565-.113.053-.267,1-.109,1.1.8,1.038.027.606,1.2.479.269v-.724h0l.435,2.036-.608,1.826-.585,4.853-1.3,4.264-3.611,5.5-.626,1.688h0l-.527-.312-.809.765-.281-.817.489-.163-.238-.2-.383.23-.355-.569-.459.448h0l.725.193-.277.481.369.107.25.5-.126.225-.432-.4-.316.53.594.372.61-.3.031.49.393-.214.247.433h0l-.575,3.317,1.076,2.83.217,5.127h0l-.7-.138-.239.255-.683-.267.181.591-.556-.115.308.735,1.089.406.058.721.5,0h0l.372,6.985-.578.285-1.231,0-4.738-.562-1.2.757-.873,1.57-.008.7.516.73-1.489,1.423-.442,1.048-1.695,1.969-.788,1.358-.483,1.716.546,1,1.647,1.424,1.684.253-1.282.292-1.839-.169-1.087.213-1.931.643-.122.25-.8-.03-.207.251.2.217-1.05.355-2.221.261-2.675,2.05-.535,1.037-.151,1.486.394-.067.571.373-.807.063-.855,1.242-.111.944.56-.1-.11,1.231-.866,1.037-.206.529.232.13-3.489,1.643-.759.951-2.27.559-.328.793-3.117-.6-2.912-2.375h0l.338-.334.5.14-.329-.887.99-.794-.3-.747.81-.107.234-.484-1.457-2.687.281.034.506-.547.376-1.122-.508-.781-.322.022,0-.42-.637-.871.662-.332.182-.7.741-.734-.2-.486.4-.4v-1.1l.229-.492.361-.006.3-1.388.588-.265.234-.617-.606-.4-.128-.926-.214.429-.272-.4-.654.378-.784-.528-.584-.025.5-1.475.243-.083.021-.785.321-.116-.332-.35.2-.465-.326-.229.472-1.035.323-.142-.145-.9-.8-.975.955-.359.274-1.189-.45-.18.053-.447-.478-.7.1-.465-.785-.081-1.474.82-.177.5-.9.533-.866-.218-.573-.571.027-.31-.342.168-.25-.237.261-.869-.425-.746.3-2.3-.328-.558.9-.042-.227-.619.557-1.29-.122-.393-.635-.105-.3-.732-2.234-.843.761-1.45,1.14-.149-.734-.069.022-1-.631-.314.456-.871-.38-.3-.98.619-1.8-.232-.463.306-.084-.681,1.244-.838-.027-.8-.381.067-.81-.471-.5-.707-1.018-.34-.17.19-.568-.4-.5.2-.19-1.42.6-.386.357.387.693-.25.4-.538.594-.012-.018-.489h0l.37.057.7-.582.48.373.261.818,2.469-.006.932.181.276.308.181-.37-.3-.573.944-1.887.795.246.175-.487.42-.026.361.259-.124.26.454-.169.2.706.5.166-.086-.682,1.648-.28.2-.253.572.056.547.534.443-.269.793.381.491-1.2-.046-.671.32.17.1-.765,2.336-.078.385-.974,1.048-1.3-.558-.838-3.458-.475.06-.81.962-.3.81-.952.215-.743.068-.936-.661.121.411-.427-.369-.1-.112-.693.369-.858-.1-.5.848-.226.319.342L187.9,563l.366.133.9-1.673-.194-.64,1.762-.607.222.3-.335.464.207.113.276-.485.475.732.266,0,.178-.687.422.048.981.985,1.323.236Z" transform="translate(-168.295 -551.218)"/>
</svg>
