<svg xmlns="http://www.w3.org/2000/svg" width="15.633" height="22.767" viewBox="0 0 15.633 22.767">
  <path id="IN-TR" d="M494.5,307.127l.608.274h0v.638l.55,1.183-.791,1.9,1.111-.036h0l.533,1.529-.3,1.632.2.656-.233.423.261.709-.145.668-.374-.082-.228.326.159.469-.363.026.121,1.254h0l-.279.065-.31.97-.084-.549-.413-.223-.082-.464-.228.041-1.227,1.379-.63-.193-.524-1.041-.285.029-.263.666.435,2.891-.442.193v.456l-.508-.056-.745.6-.961,1.768.8,2.64-.269.37-.487.047-.722,1.124-.341-.2-.613.154-.627.519-.492-.236-.932-2.61.178-.419-.486-.1.155-.338-.348-.614-.478,0-.462,1.092.439,1.737-.588-.07-.627-1.353.026-1.374-.343-.547.2-.168-.322-.272.376-.6-.384.114-.569-1.958-.622-.407.148-.444-.246.005-.446-.786-.061-.992.5.343.148-.589-.687-.053.029-.7.466-.2.385.191.438-1.445-.333-.633.225-.437-.189-.223.544.034-.059-.543.157-.283.212.151.09-.376.952.316.243-1.084-.245-.846,2.218.486,1.179-.386.347-1.237-.161-.39.259-.234.231.89.621.393.4-.015-.248-1.512.956.557.423-.283-.076.446.617.884.287-.076.425-1.825-.285-.994.487-.3.508.51-.283-.982,1.925.07.264-.592.446-.094-.27-1.013.046-.35Z" transform="translate(-480.881 -307.107)"/>
</svg>
