<svg xmlns="http://www.w3.org/2000/svg" width="100.087" height="97.699" viewBox="0 0 100.087 97.699">
  <path id="IN-UP" d="M192.62,167.924l.944-.1,1.016,1.111,2.927,1.413-1.233,2.072-.338.348-.354-.159-.383.795.2.337-.559.6.2.3-.362.5.2.329-.411.64.831,1.323L195.2,178.5l.494.237-.032.284.483.193.6-.5,1.036-.052.329,1.4-.331-.031-.06.392.483.036.057.645.648-.1.094-.619.506-.134.757-1.136.722-.52.5.091,1.331-1.41,1.072.364.995.476.527,1.791,1.033.957,2.391,1.311,1.823.3-.7.974-.549.369-.263-.225-.267.818-.417-.313-.577.495,1.141.906.7-.052.617.894.017.792.583.015.238-.262.726.745.132-.829,1.378.654.082.914.377.275-.094.432.607-.094,1.258,1.155.7.01.1-.275.23.508.324.073.13,1.16,1.274-.113.387-.444.192.709.831-.347.7.31.61-.491.826-.169.453.44-.335.871.432-.1.114-.493.392.008.286.394-.465.147.805.1-.163.248.444.8.6.259.607-.329.356-.694-.2-.254.62-.453h0l.629.015,1.3,1.114.458-.038.075.432.8.442.563.956,1.219.124.882,1.167.168-.328-.355-1.39.866-.342.568.737.744-.04.3.829,1.03.326.28.624,1.015.527.138-.306.433.184.077.451.86.5.507-.261.232.579.6.43,1.736.367.293,1.082,1.166,1.384.008.429-.254.027.343.283-.132.223.708-.133.051-.523.912.222.532.664-.074.536,1.933,1.221,1.036.225,2.425,1.946.546-.038.558-1.04,1.32.082.737.88,1.127.329,3.19,2.469,3.438-.647.051.852.585,1.175-.277,1.253,2.581.033.326.5,1.06.285,2.044-.079,1.547,1.838.722-.176.669-1.041-.329-.338.227-.335-.173-.329,2.995.151,3.207,1.773h0l-.392.423.341.172.823-.211.119.317-.367.669.75.365.322.517-.522,1.6,1.078-.037-.4.4.664.357.077,1.234-.288.287.3.162.058.6.5.216.14-.352.534.2-.122.475.494.315.535-.543.423.128.148.8-.367.769.124.261.177.153.672-.357.366,1.026,1.016.194.162.655-1.886.414-2.526-.647.01.643-.461.834-.976.172-.154.347-.8-.141v1.007l1.056.232.385-.206.81.949,1.317.156.137.845-.3,1.055-.615-.237-.446.6-.9-.289.088,1.415.41.673.557.047,1.011,1.051-.014.5.472-.134,1.254.792.73-.183.755.414.2.575,1.4.217-.022.641.392-.047.845.641-.261.493.4.477-.994-.119-.044.772-.277-.13.06-.5-.15.622-.48.1-.525-.54-.622.221-.29-.726-.646.061-.169,1.072-.464-.077.027.23-1.1-.119-.114-.5-.611-.407-.713.156-.328.365.091.857-2.115,1.164-.874,1.249-.543.115.373.427-.584.078.067.3-.5.34-.39-.334-.378.359-.125-.146-.257.26.182.1-.514.049-.369.566-.772.314-.328-.139-1.05.965-.677.04-.279.621-.512.119-.189.258.292.839-.52,1.569.341.1.134,2.05.483.55-.048.716.88.745.354-.066.012.469.437.36-.215.431.582.373-.573,1.449h0l-1.395.377-.154.665.248.686.395.071.285.57-1,.732.345.709-1.039,2.4h0l-.457.414-.172.723-.8.493-.352.993-1.365.624-1.961.033-1.738-1.267h0l-.139-.612-.734-.236.322-.822-.767-.042-.677-.786.179-.345.657.283.087-1.228.3-.188.189-.821-.048-1.175-.708-.177.39-1.673-.278-.2-.041-.626.444.215.726-.163-.059-.688h-.481l.035-.67-.9.02.01-.46-.5-.361-1.707.709-.143-.386-.923.006-.219-.414-.407.328.1,1.258-1.053-.379-.475.147.033-.823-.438-.24-.137.3-.307-.052.182-1.552-.07.313-.231-.185.025.224-.309,0,.189.342-.542-.16.219-.626.267.012-.4-.339.225-.291-.485.472h-.626l-1.424-.856-.606.294-.832-.907.207-.562-.18-1.154-.164.246-.753-.389-.533.135-.753-.566-.67.072-.308-.527-.72.278-.14-.28.506-.344-.2-.285-.206.329-.12-.531.356-.342-.494-.126-.2-.4-.754.128.2.637-.388-.128-.3.223.461.445-.317.468-1.1-.482.5-.039-.108-.34-.517.154-.813-.725-.225.131.022.694-.11-.73-.494-.026-.31.913.211.545-.795,1.067.144.9-.374.078.193-.081-.5-.348-.385.974-.743-.882-.887-.03.1.32-.817.1-.244-.686-.524.231h0l.072.243-.238-.128h0l-.662.21-.434-.145-.162-.4.772-.387-.285-.6.584-.467-.075-.772.53-.538-.357-.518-.554.043-.113,1.21-.373-.53-1.326.137.342.209v.366l.673.2v.331l-.646-.149-.712.259.076-.405-.3.108-.729-.44.412-.277-.5-.469.162,1.219-.588-.282-.253.349-.45-.49-.442-.018.316.186-.077.649-.318.009-.392-.548-.994.357.217.7-.309-.239-.56.336-.659-.4,1.119-1.682.961-.43-.328-1.011-.279.08-.981-.755.089-1.447-.728-.61-.141.35-.681-.166-.08.479-.857.665-.53-.256-.83.186-.318,1.1-.719-.048-.387.566-.146-.345-.733.246.331,1.32-.324.248.11.512L221.57,247l-1.96.183.065-.342-.174.109-.321-.444-1,1.392-.389-.2.1-.559-.495.4-.211-.463-.212.376-.2-.834.342-.566.439-.055-.208-.184.426-.652.414-.013-.438-.2-.558.363-.635-.516-.192.425-.294-.421.2-.573-.679-.105-.459.44-.01.571.376-.277.3.417.4-.16-.146.63.237.23-.191.2-.783-.695.069.745.474.668-.15.273-.572.165-.012-.458-.309-.113-.291.185.393.111-.068.358-.425.038-.286-.548-.24.129.166.362-.665.1-.283-.483.167-.3-.479-.417-.547.8-.283-.073.037-.637.423-.575-.588-.331-.094-.423-.449.471.312.164.015.555-.63-.356-1.014.8.053-1.319.21.152.224-.425.425.172.39-.331-.228-.951-.335.267-.678-.188-.461,1.695-.479-.614.08-.425-.377.033.115-.253.684-.258-.076-.291.491-.522.989-.185-.241.339-.513.027.48.346.662-.356-.244-.925-.411.155-.343-.273.43-.488-.256-.6.338-.153-.148-.421-.184.271-.086-.266-.478.034.022.481-.632.211.383.631-.3.511-.271-.2.423-.119-.21-.167-.973-.154-.328-.361-.094.55.4.433.767.05-.926.26.282.8-.673.08-.061-.379-.678-.136-.018-.472.167.239.428-.368-.207-.278-.438.056-.32.552-.333-.156-.2.367-.361-.053.2.644-.677-.163.217.536-.217.294-.329.036-.107-.29-.333.453-.351-.164-.176.228.354.266L205,244.8l.954.518.379,2.361.594.534-.264,1.417.419.3.2.613,1.274.6.214.679-.212.293.1,1.329-.429.646.125.8.364.174,1.391-.681,1.123,2.085-.473.182-.224-.238-.07.5,1.006.372-.233,1.28-.784.764-.383,1.139-.867.186-.29.438-.417-1.141-.191.28-.181-.212-.442.282-.395-.154-1.2-1.633-.969-.538-.936,1.4-.731.322-.712-.788.464-.819-1.248-.9.036-.421-.662-.681.52-.517.127-1.592-.638-1.174-.151-.962-.6-.645.021-.361,2.151-1.726,0-1.309.9-.613.631.026-.326-.363.373-.229-.81-.384.165-.332-.573-.416-.125-.763-.492-.191.309-.378-.475-.561.461-.386.229-.792.4.1.575-.43-.16-.814.274-.456.343.176.412-.446,1.259.264.364-.365.53.345.377-.419,1.7-.449.081-.736-.856-1.1.978-.742.023-.234-.31-.044.165-.176.672.457-.2-.906.478-.144-.084-.67.705-.5.2-1.3.781-.663-.8-.849.77-.234-.309-.6.5-.029.073-.545.486.02-.266-.506.4-.306.217.225.136-.586.435-.061-.145-.283.24-.146-.756-.263.133-.818.4.01.126-.41-1.039-.167.165-.7-.535-.718-.3.01-.088-.466-.155.123.345-.541-.165-1.1-.733.326.136-.507-.586-.247-.518.13-.71-.905-.6.014-.336-.417-.24.2-.1-.311-.747.461-1.236.172-1.526-.6-.33-.51-.479.11-.509-.737-.919.154-.281.642-.677-.225h0l-.248-.783.47.089.473-.609-.614-.454-.141.225-1.246-.214-.131.719-.786-.156.074.605-.342.208-.2-.742-.859.162-.558-.369-.13.523-1.813-.719-.457.318-.041.523-1.476.723-1.112.16-.3-.386-.226.9.164.31-.6.3.212-.34-.473-.008.141-.73-.222-.713,3-1.592,1.16-.215.248-.516-.379-.131-.055.465h-.248l-.4-.765-.61.538-.928-.319.11-.614-.587.161-.3-.418,1.225-.417.19-.678.656-.106.244-.37-.444-.253.062-.323-.7-.922.3-.641-.525.25-1.025-.818-.867-.267-.222-.393.191-.549-.44-.236-.186-.58-.627-.2-.063-.616.262-.335-.516-.274.413-.62-.077-.649-.516-.338.086-1.041-.376-.279h0l.843-.8.969.008v-.558l.613.163.136-.716.669.016.241-.39-.355-.157.327-.379-.745-.765-.136-.631.124-.331.187.15.054-.933.61-.328-.666-.052-.04-.405.4.154-.046-.422.34-.271-.98-.332.338-.165.041-.4-.425-.468.4-.306-.261-.834-1.815-1.444h0l-.582-.874.562-.638-.331-.541.163-1.08-.511.052-.8-1.139-.368-.116.271-.607-.4-.479h0l-.068-.349.523-.217-.412-.783.319-.765-1.222-1.518.238-1.161-.2-.652.25-.282-.193-.449.324-.956-.45-.218-.041-.41.4-.2-.278-.319.18-.481-.723-1.4.329-.3-.319-.731.765-1.609-.348-.994.469-.343.369-1.731,1.1-1.472.1-.71,1.91-.9-.218-.179.339-.765.66-.31.71-1.442.578-.446.288-.919-.227-.21h0Z" transform="translate(-186.278 -167.826)"/>
</svg>
