<svg xmlns="http://www.w3.org/2000/svg" width="45.848" height="42.341" viewBox="0 0 45.848 42.341">
  <path id="IN-UT" d="M217.931,143.72l.707.887-.188.663.516.362.16.943.534.626.753.177.414,1.255,1.169-.025.4,1.009.744.481.885-.661.674.036.5-.363.834.451.662-.018.8,1.344,1.712.746.783,1,.718-.512.44.757.429-.022.193.426-.233.626-.521.423.378.383.09,1.021,1.192.178.832.628.428-.067,1.67,1.187.765-.508,2.033,1.374.979,1.2,2.763,1.032-.01.248-.377-.153-1.042.363-.627.835.194.621-1.542,1.215-.18.658-.948.745-.962-.01-.674,1.679-.76.794-.789-.126-.9.844.215,1.157.477.55-.165.675-.385.515-.48.129.092.518-.834.637.21.369-.788.13-.02.5.445.3.056.68.5.522-.26,1.652-.651-.237.312,1.2-.509.359-.65-.288-.53.523-.116,1.456-.236.388-.234-.071-.554,1.065.162,1.314h0l-.62.453.2.254-.356.694-.607.329-.6-.259-.444-.8.163-.248-.805-.1.465-.147-.286-.394-.392-.008-.114.493-.432.1.335-.871-.453-.44-.826.169-.61.491-.7-.31-.831.347-.192-.709-.387.444-1.274.113-.13-1.16-.324-.073-.23-.508-.1.275-.7-.01-1.258-1.155-.607.094.094-.432-.377-.275-.082-.914L215.7,177.3l-.132.829-.726-.745-.238.262-.583-.015-.017-.792-.617-.894-.7.052-1.141-.906.577-.495.417.313.267-.818.263.225.549-.369.7-.974-1.823-.3-2.391-1.311-1.033-.957-.527-1.791-.995-.476-1.072-.364-1.331,1.41-.5-.091-.722.52-.757,1.136-.506.134-.094.619-.648.1-.057-.645-.483-.036.06-.392.331.031-.329-1.4-1.036.052-.6.5-.483-.193.032-.284-.494-.237.092-1.065-.831-1.323.411-.64-.2-.329.362-.5-.2-.3.559-.6-.2-.337.383-.795.354.159.338-.348,1.233-2.072-2.927-1.413-1.016-1.111-.944.1h0l.24-.4,1.3-.331,1.594-.921.151-.336-.1-.472-.549.012-.429-.546.7-.324-.039-.686-.606-.342.1-.384-.7-.9.745-.947v-.8l.595.35.083-1.011-.663.024-.146-.578.388-.271.707.363-.275-.252.383-.594-.328-.838.56-.3.592-1.14.892-.374.789.37.208-.472.767-.086.8-.634,1.125-.054.483-.565.323.082.066-.345.769-.042.547.67.291-.188.327.243.345.629.888-.046.773-.462.518.225.176.423,1.955-.162.314.9.7.619,1.661-.124-.291-.975-.783-.732-.116-.529h0l.245-1.129.878-.5.746-1.657,1.075.493Z" transform="translate(-196.287 -141.901)"/>
</svg>
