<svg xmlns="http://www.w3.org/2000/svg" width="53.735" height="82.872" viewBox="0 0 53.735 82.872">
  <path id="IN-WB" d="M404.7,326.33l.374.357.066.465-.651-.179Zm4.471-.107.912.734-.806.027Zm-1.475-.276.374.351-.211.434-.38-.322.217-.463Zm-2.472-.172.667.524-.5.547-.531-.552.191-.729Zm3.113-.207.347.878-.611.215.2-.352-.327-.379Zm2.571.165.253.288-.383.054-.054-.715Zm-4.944-.522-.008.857-.515-.32Zm5.193-.4.084.594.287.239.217.608-.382.045,0-.374L411,325.6l-.293-.712Zm-2.383.126-.1.6-.517-.308.622-.287Zm-6.55-.135.464.253.159.587-.568.564-.056-1.4Zm1.9-.043.221.52-.305.672-.189-.734.274-.458Zm-3.31-.169.16.295-.153.262.208.229.04.339-.155.583-.407-1.227Zm11.338-.01.475,1.113-.576.378-.7-.894.143-.354Zm-6.768.067.354-.079.2.451-.612.614-.342-.79Zm4.431-.4.759.715-.258.9-.634-.889.133-.726Zm-6.244.2.215.419-.231.619.276.448-.442.455-.251-1.219.316-.513-.332-.216.219-.333Zm-2.584-.266.656.11.445,1-.188.98.262.337-.376.3-.452-.128Zm9.5-.12.516.575-.572-.116Zm-7.459.02-.082.5.246.274-.309.239-.143-.9Zm8.517-.029.5.387-.327.176Zm-2.37.019.4-.015-.347.739.273,1-.206.14-.468-.169.081-1.018-.534.094.282-.6.515-.179Zm-3.351-.289.5.688-.169.479-.409-.841Zm5.26-.07.485.815-.147.137-.713-.753Zm-4.9-.109.125.6-.233-.2-.134-.306Zm-1.874.019-.016.74-.436.276.057-.717.395-.3Zm3.286-.264.572.689-.087.4.182.086-.049.47-.447.093.252.4-.809-.282.105-.942.281-.909Zm-2.276-.042.367.322,0,.748-.7.234-.2-.739.535-.565Zm-1.628-.011.278.16-.276.846-.324-.619.322-.387Zm7.664-.008.224,0,.086.672-.434-.358.124-.309Zm-2.275.109.029.535-.523.238.409-1.043.085.27Zm1.5-.619.468.382-.159.463-.653.259-.169-.578Zm-4.631-.04.2.283-.051.446-.359-.257.214-.472Zm-3.444.077.3.728.331.093-.04.283-.452.113-.1.511-.489-.122-.252-.988.708-.619Zm6.944-.294.279.194.457,1.646-.9-.748Zm-9.539-.14.471.9-.024,1-.362.9.15.422-.6.345-.895-.333-.066-.369.479-1.5.85-1.358Zm8.673.295.456-.509.238.259-.668.961-.1-.513Zm2.5-.56.662.4-.169.592-.794-.283.3-.7Zm-4.74-.061.422.426-.193,1.191-.509-1.131.281-.487Zm-.787,0,.17.275-.267.765-.218-.324.315-.716Zm-1.537-.106.472.245.107.449-.558.589-.594-.021.279-1.107.293-.155Zm3.566.074.437.052.428.525-.3,1.121-.811-.815.248-.883Zm-1-.314.364.144-.266.343Zm2.607.054,1.042-.147.686.388-.177.309-.653.518Zm-1.5-.2,1.006.175.115.5-.243.282-.253-.52-.687-.116Zm.289-.685.07.357.413.082.131.187-.655-.047-.246-.493.288-.086Zm-1.132-.566.739.266-.5.828-.656-.218.416-.877Zm-6.879-.1-.715,1.342-.535.3.347-1.2Zm8.906.1,1.19.111-.076,1.066-.544.13-1.287-.578.182-.625.534-.1Zm3.03-.416.488.882-.2.751-.406.12-.7-1.357.073-.492Zm-2.263-.437.219.653-1.2-.179Zm-.385-.353.178.229-.841.239-.134.322-.316-.093.347-.746.48-.181Zm.2-1.257.786,1.448-.577.036-.551-.563.56-.222-.445-.768Zm1.312.119.388.489-.265.818-.532.389-.01.578.295.347-.15-.79.383-.027.117.991.648.947-.117.282-1.013-.489-.312-.835-.15-1.016.388-.47-.489-1.027.342.123.474-.312Zm.618-.234.644.984-.17.936-.928-.1.388-.941-.322-.8Zm-4.088.005,1.265.421-1.4,1.263.7.721-.123.315-.866-.3-.361-1.088Zm2.1.7-.985.553-.511.778-.216-.02-.265-.294,1.453-1.362.278-.06.246.4Zm1.269-1.082.187.4-.4.29-.094-.263.027-.308Zm-1.789-.834.174.6-.361.222.314.559-.426.09-.548-.387.056-.34Zm.38-.9.668.038.259.536.343.1.1.863-.544.227.143.688-1.349-.693.3-.165-.2-1.276.282-.313Zm1.9-.528-.015.82.527.4-.39.164.969,1.26.023.732.366-.11-.456.382-.56-1.108L411,317.6l-.233-.691.227-2.052Zm-1.206-2.2-.019,1.009.389.919-.446.331-.329-1.83.406-.429Zm.537-.345.342.155.513,1.7-.519.283-.233,1.448-.459-.372v-.6l.347-.28-.366-1.017.02-1.187.358-.135Zm-12.166-68.29.769.269.145.887.674.368.783-.289.489.246.954-.132.257.354,1.435.347,1.3-1.023-.122-.419.508-.158.8.013.5.38.371-.266.532.623.36-.145h0l1.569.59.067,2.345.584-.666.46.418-.183.385.3.273.829-.241.286.546.582.144.155.859.385.421,1.652-.131,1.613-.737.184.378.772.106.133.411,1.321-.138.834.575.3-.06.129.259-.544.527.249.132.351.011.2-.326.7.269.4-.211.236.549.435-.23.66.167h0l.257.808-.256.388.272.582-.206.094-.124,1.339.238.414-.575.941.259-.093.139.271-1,.463-.015.332-.4.14.108.477-.541-.243.26.513-.163.188-.271-.17.317.469-.418.311.461.073-.493.344.521.209-.2.133h0l-.259-.034-.3-.488-.041-.257-.473-.133.305.771-.545-.036-.08.365-.25-.054.508.564-.482.266.217.184.261-.275.265.642-.944.582-.015.829-.489-.034-.016-.516-1.378-.047-.119-.548-.413.573-.61-.054-.92-.57.027-.25-.312.03.141-.41-.558-.459-.9-.238-.29-.612.084-.819-.51-.7.478-.57-.707-.016.214-.253-.271-.4.089-.492-.7.019-1.017-.968-.172.5-.234-.106-.3.36.115.625.58.061.063.171.305.031.215.349-.209.354.55.285.422-.124.061.573-1.317.2-.472-.693-.617-.049-.267.209.224.572-.508.068-.366-.377.032-.608-.3-.185-.5.186-.164-.781-.594.28-.3-.681.277-.121-1.036-.7-.051-.529-.338-.011.024.333-.529-.11.052-.476-.457.107-.539-.885-.672-.082-.266-1.3-.5.6-.564,1.722.277.472.155-.612,1.534.386.551,1.5-.5.158-.386-.364-.262.545-.413.1.122.215-.855.51.011.913-1.362.454-.92.645-.258,1,.323.11-.162.559.186.129-.572.181-.759,1.468.286.338.117,1.373.459.338.459-.369.3.2.814-.335.024.416,1.417.995.38.638.658.13-.137.937.711.231-.046.347,1.08.77.416-.113.536.532.65.1.162-.4.769.07-.082-.427.63.023.381.739-.295.9.373.238-.017.435.6.587.236-.192.253.47,1.136.164-.724.487.029.583-.319.022.167.5-.323.248-1.036-.647-.546.572-.409-.275-.277.194-.568-.467-1.222.051-.68.418-.877-.5-.714.226.223.8-.264.231.134.69-.217.426.229.214-.748.975.054.343-.793.1-.2.416.286.271-.3.386-.633-.438-.181.3,0-.626-.472-.6-1.172.342.477,1.1-.372.158-.152.658-.181-.239-.219.618-.469.146-.077.7-.719.8,1.82,2.354.693.658,1,.319.767.811,1.531.09,1.065.479.349.7.174-.44.241.01.577.29.964-.066.427.517-.036,1.134-.431.457.142.686-.206.08.07.269.34-.015.021,1.477.418-.2.163.34-.478.1-.046.947-.39,0-.576.652-1.1.121.342.624-.559.457.255.29-.227,1.789.408.08-.153.52.85-.106.189.8,1.11,1.042.738-.2-.1.776-.34-.021-.1.345.065.829-.382.224.167.528-.646.193.3.633,1.013.537.231-.014.05-.5.463.382.805-.078.075.313,1-.058-.169.448-.271-.124-.54.922-.674.434.044,1.324-.354.027.281.186-.086.5.45.067.245.46-.061.6h.487l.285.5-.12.7-.52.469.532,1.023-.355,1.035.333.115-.267.588-.911.347-.346.546.2.384-.159,1.335.4.474-.761-.119-.253,1.09-.772.708-.07.463-.722-.054-.83,1.45.231.911-.5,1.012.106.884-.38.334-.073-.251-.424.048-.166.727-.448-.372.414-.732-1.4.338-.3.305-.091,1.235-.354.016-.139-.849-.528.141-.727.569.183.742-.736-.124-.715-1.646.184-.668-.312-.474.718-.908.214-.756-.277-1.315-.5-.458-1.272-.188.468-1.331-.741,1.215-.853-.368-.347-.56-.163-1.745-.305-.415-.525-.094.776,1.08-.03,1.524.911.845,1.684.239.707,1.228-1.68,1.234-.122.04-.964,2.185-.678.819-.521.1-1.328,1.41-.483-.067-.844.6-2.755.7h0l-.31-.518.162-.89-.37-.313.01-.456-.975.012-.239-.367-1.19-.4-.366-2.012-.893-.273-.121.614-.859.324.015.681-.855-.071-.428-.6.483-1.171-.222-.747-.8-.6-1.661-.169-.553-.844-.993.15.1-1.03h0l.587.056.119-.035.32,0,.129-.349.027-.372.06.21.919-.04.007-.6-.756-.438.2-1.027-1.084-.419-.224-.725.582.017.124-.35-.513-1.058-1.436-.049-.449-1.4-1.043-.681-.433.276-1.2-1.081.221-1.21.4-.521-.4-.386.5-.376.188.219.449-.145.291-.62-.372.3-.2-.342-1.076-.07-.307.3-1.257-.563-1.138.308-.828-.707-.179-.61-1.175-.369-.146-.5-1.618.2-.762-.936-.344-.011-.069-.983.685-.877-.155-.6.39-.083-.436-.57.042-.873,1.033.226,1.371-.566-.484-.841.479-.467,1.3.233.01,1.372,1,.248.236-.2-.187.493.246.233.468-.312.285.306.189-.12-.188-.223.953-.564-.242-.2.056-.676.3-.6.779-.359,0-.3,1.178.01.835-.612,1.356-.339.5.011.086.235.715-.142.368-1.071-.357-1.021.37.292.67-.477.053-.265.262-.255.549.51.4-.3,2.086,1.021.326.01.234-.366-.471-.688.859.184-.094.2.4.146.32.067.073-1.175.295.495.32-.372-.036-.831-.4-.152-.312-1.092,1.253.148-.225.387.166.123.381-.192,1.344.4-.32-.391.648-.077.369-.381-.256-.177.032-.92,1.1.437-.092-.313.509-.324-.507-.388,1.594.085.04-.529-.727-.37-.026-.451.605-.057.384-.665.61-.169.713-1.5-.335-.116.506-1.166-.215-.237-.153.286.148-.79-.49-.535,1.045.449.519-.17.3-.455-.494-.247.383-.027-.226-.206.383-.467-.355-.227.188-.695-.81-.243-.287-.407.258-.32-.03.359.255-.015.293-.43-.119-.429.409-.022-.125-.416,1.12-.637-.091-.486-1.187-1.443-1.333-.928.146-1.9h0l.651.312-.184-.515.447-.638-.962-.8.065-.585-.307-.084-.088-.4.3-.583.362.154.333-.448.393-.012.209-.745.262.172.359-.47.8.168.008.327.233.126.043-.241.266.357.568.083.032-.345-.492-.483-.2-.74.441-.677-.248-.059.172-.793-1.162-.5-.38-.689-.45.023.16-.665-.36-.2.365-.342-1.168-.291-.253-.6.347-.345.162-1.612.939-.688.241.326.09-.229.4.046-.054-1.046.65.165.323-.545.43.029.99-1.142.926-.428,1.03-1.071-.323-.4-.4.086-.1-.276.5-.412-.516-.377-.037-.432-.431.063-.2-.276.721-.62-.029-.292-.835.217-.3.392-.521-.366h0v-.006h0l-.011-.05h0l.764-1.44.364-2.01-.191-1.4-.493-.494.129-.329-.34-.443.192-.524-.563-.28-.206-.463-.52-.019-.22-.762-.392-.266.369-.978-.07-.725Z" transform="translate(-369.27 -244.28)"/>
</svg>
